<svg width="104" height="275" viewBox="0 0 104 275" fill="none" xmlns="http://www.w3.org/2000/svg">
<path d="M17.8699 24.466C22.9655 44.9522 27.7856 63.9865 32.4142 83.1479C32.6898 84.5999 31.915 86.423 31.2198 90.4823C27.4654 82.5127 24.1735 76.525 21.6471 70.0285C15.0999 52.7962 9.02894 35.5744 2.86457 18.0877C2.11738 15.9681 1.1788 13.9757 0.814399 11.6017C-0.657003 4.07699 1.75613 -0.470109 7.46584 0.313417C10.225 0.768782 12.8862 1.61631 15.4493 2.85599C25.1324 7.53923 34.7174 12.6146 44.3025 17.69C46.0113 18.5165 47.4261 20.5194 49.8866 22.8083C40.3122 29.8258 32.8693 18.0943 24.1861 20.2681C25.4094 22.3983 26.348 24.3907 27.3846 25.9909C66.7658 88.114 90.3591 160.403 101.61 240.569C102.885 248.878 103.301 257.431 103.909 265.857C104.26 270.202 103.275 274.781 99.2744 274.824C95.3668 275.131 94.0592 271.422 93.9046 266.292C92.4978 208.69 76.4745 157.204 57.9676 106.716C48.4363 80.3478 37.1778 55.782 23.7159 33.0076C22.0209 30.2098 20.1345 27.5393 17.8699 24.466Z" fill="#0E1724"/>
</svg>
