<svg width="251" height="249" viewBox="0 0 251 249" fill="none" xmlns="http://www.w3.org/2000/svg">
<ellipse cx="70.6624" cy="4.36113" rx="3.10183" ry="3.47873" transform="rotate(21.0645 70.6624 4.36113)" fill="#C1E5C0"/>
<ellipse cx="79.9249" cy="7.92876" rx="3.10183" ry="3.47873" transform="rotate(21.0645 79.9249 7.92876)" fill="#C1E5C0"/>
<ellipse cx="89.1875" cy="11.4964" rx="3.10183" ry="3.47873" transform="rotate(21.0645 89.1875 11.4964)" fill="#C1E5C0"/>
<ellipse cx="98.45" cy="15.0638" rx="3.10183" ry="3.47873" transform="rotate(21.0645 98.45 15.0638)" fill="#C1E5C0"/>
<ellipse cx="107.713" cy="18.6314" rx="3.10183" ry="3.47873" transform="rotate(21.0645 107.713 18.6314)" fill="#C1E5C0"/>
<ellipse cx="116.975" cy="22.199" rx="3.10183" ry="3.47873" transform="rotate(21.0645 116.975 22.199)" fill="#C1E5C0"/>
<ellipse cx="126.238" cy="25.7664" rx="3.10183" ry="3.47873" transform="rotate(21.0645 126.238 25.7664)" fill="#C1E5C0"/>
<ellipse cx="135.5" cy="29.334" rx="3.10183" ry="3.47873" transform="rotate(21.0645 135.5 29.334)" fill="#C1E5C0"/>
<ellipse cx="144.763" cy="32.9017" rx="3.10183" ry="3.47873" transform="rotate(21.0645 144.763 32.9017)" fill="#C1E5C0"/>
<ellipse cx="154.025" cy="36.469" rx="3.10183" ry="3.47873" transform="rotate(21.0645 154.025 36.469)" fill="#C1E5C0"/>
<ellipse cx="67.1614" cy="13.4507" rx="3.10183" ry="3.47873" transform="rotate(21.0645 67.1614 13.4507)" fill="#C1E5C0"/>
<ellipse cx="76.424" cy="17.0184" rx="3.10183" ry="3.47873" transform="rotate(21.0645 76.424 17.0184)" fill="#C1E5C0"/>
<ellipse cx="85.6865" cy="20.5857" rx="3.10183" ry="3.47873" transform="rotate(21.0645 85.6865 20.5857)" fill="#C1E5C0"/>
<ellipse cx="94.949" cy="24.1534" rx="3.10183" ry="3.47873" transform="rotate(21.0645 94.949 24.1534)" fill="#C1E5C0"/>
<ellipse cx="104.212" cy="27.721" rx="3.10183" ry="3.47873" transform="rotate(21.0645 104.212 27.721)" fill="#C1E5C0"/>
<ellipse cx="113.474" cy="31.2884" rx="3.10183" ry="3.47873" transform="rotate(21.0645 113.474 31.2884)" fill="#C1E5C0"/>
<ellipse cx="122.737" cy="34.856" rx="3.10183" ry="3.47873" transform="rotate(21.0645 122.737 34.856)" fill="#C1E5C0"/>
<ellipse cx="131.999" cy="38.4234" rx="3.10183" ry="3.47873" transform="rotate(21.0645 131.999 38.4234)" fill="#C1E5C0"/>
<ellipse cx="141.262" cy="41.991" rx="3.10183" ry="3.47873" transform="rotate(21.0645 141.262 41.991)" fill="#C1E5C0"/>
<ellipse cx="150.524" cy="45.5586" rx="3.10183" ry="3.47873" transform="rotate(21.0645 150.524 45.5586)" fill="#C1E5C0"/>
<ellipse cx="63.6605" cy="22.5403" rx="3.10183" ry="3.47873" transform="rotate(21.0645 63.6605 22.5403)" fill="#C1E5C0"/>
<ellipse cx="72.9231" cy="26.108" rx="3.10183" ry="3.47873" transform="rotate(21.0645 72.9231 26.108)" fill="#C1E5C0"/>
<ellipse cx="82.1857" cy="29.6753" rx="3.10183" ry="3.47873" transform="rotate(21.0645 82.1857 29.6753)" fill="#C1E5C0"/>
<ellipse cx="91.4481" cy="33.243" rx="3.10183" ry="3.47873" transform="rotate(21.0645 91.4481 33.243)" fill="#C1E5C0"/>
<ellipse cx="100.711" cy="36.8106" rx="3.10183" ry="3.47873" transform="rotate(21.0645 100.711 36.8106)" fill="#C1E5C0"/>
<ellipse cx="109.973" cy="40.378" rx="3.10183" ry="3.47873" transform="rotate(21.0645 109.973 40.378)" fill="#C1E5C0"/>
<ellipse cx="119.236" cy="43.9456" rx="3.10183" ry="3.47873" transform="rotate(21.0645 119.236 43.9456)" fill="#C1E5C0"/>
<ellipse cx="128.498" cy="47.5132" rx="3.10183" ry="3.47873" transform="rotate(21.0645 128.498 47.5132)" fill="#C1E5C0"/>
<ellipse cx="137.761" cy="51.0806" rx="3.10183" ry="3.47873" transform="rotate(21.0645 137.761 51.0806)" fill="#C1E5C0"/>
<ellipse cx="147.024" cy="54.6482" rx="3.10183" ry="3.47873" transform="rotate(21.0645 147.024 54.6482)" fill="#C1E5C0"/>
<ellipse cx="60.1596" cy="31.6299" rx="3.10183" ry="3.47873" transform="rotate(21.0645 60.1596 31.6299)" fill="#C1E5C0"/>
<ellipse cx="69.4221" cy="35.1973" rx="3.10183" ry="3.47873" transform="rotate(21.0645 69.4221 35.1973)" fill="#C1E5C0"/>
<ellipse cx="78.6848" cy="38.7649" rx="3.10183" ry="3.47873" transform="rotate(21.0645 78.6848 38.7649)" fill="#C1E5C0"/>
<ellipse cx="87.9473" cy="42.3326" rx="3.10183" ry="3.47873" transform="rotate(21.0645 87.9473 42.3326)" fill="#C1E5C0"/>
<ellipse cx="97.2098" cy="45.9002" rx="3.10183" ry="3.47873" transform="rotate(21.0645 97.2098 45.9002)" fill="#C1E5C0"/>
<ellipse cx="106.472" cy="49.4676" rx="3.10183" ry="3.47873" transform="rotate(21.0645 106.472 49.4676)" fill="#C1E5C0"/>
<ellipse cx="115.735" cy="53.0352" rx="3.10183" ry="3.47873" transform="rotate(21.0645 115.735 53.0352)" fill="#C1E5C0"/>
<ellipse cx="124.997" cy="56.6028" rx="3.10183" ry="3.47873" transform="rotate(21.0645 124.997 56.6028)" fill="#C1E5C0"/>
<ellipse cx="134.26" cy="60.1702" rx="3.10183" ry="3.47873" transform="rotate(21.0645 134.26 60.1702)" fill="#C1E5C0"/>
<ellipse cx="143.523" cy="63.7378" rx="3.10183" ry="3.47873" transform="rotate(21.0645 143.523 63.7378)" fill="#C1E5C0"/>
<ellipse cx="56.6587" cy="40.7195" rx="3.10183" ry="3.47873" transform="rotate(21.0645 56.6587 40.7195)" fill="#C1E5C0"/>
<ellipse cx="65.9213" cy="44.2872" rx="3.10183" ry="3.47873" transform="rotate(21.0645 65.9213 44.2872)" fill="#C1E5C0"/>
<ellipse cx="75.1838" cy="47.8545" rx="3.10183" ry="3.47873" transform="rotate(21.0645 75.1838 47.8545)" fill="#C1E5C0"/>
<ellipse cx="84.4464" cy="51.4222" rx="3.10183" ry="3.47873" transform="rotate(21.0645 84.4464 51.4222)" fill="#C1E5C0"/>
<ellipse cx="93.709" cy="54.9898" rx="3.10183" ry="3.47873" transform="rotate(21.0645 93.709 54.9898)" fill="#C1E5C0"/>
<ellipse cx="102.972" cy="58.5572" rx="3.10183" ry="3.47873" transform="rotate(21.0645 102.972 58.5572)" fill="#C1E5C0"/>
<ellipse cx="112.234" cy="62.1248" rx="3.10183" ry="3.47873" transform="rotate(21.0645 112.234 62.1248)" fill="#C1E5C0"/>
<ellipse cx="121.497" cy="65.6924" rx="3.10183" ry="3.47873" transform="rotate(21.0645 121.497 65.6924)" fill="#C1E5C0"/>
<ellipse cx="130.759" cy="69.2598" rx="3.10183" ry="3.47873" transform="rotate(21.0645 130.759 69.2598)" fill="#C1E5C0"/>
<ellipse cx="140.022" cy="72.8274" rx="3.10183" ry="3.47873" transform="rotate(21.0645 140.022 72.8274)" fill="#C1E5C0"/>
<ellipse cx="53.1578" cy="49.8091" rx="3.10183" ry="3.47873" transform="rotate(21.0645 53.1578 49.8091)" fill="#C1E5C0"/>
<ellipse cx="62.4202" cy="53.3765" rx="3.10183" ry="3.47873" transform="rotate(21.0645 62.4202 53.3765)" fill="#C1E5C0"/>
<ellipse cx="71.6829" cy="56.9441" rx="3.10183" ry="3.47873" transform="rotate(21.0645 71.6829 56.9441)" fill="#C1E5C0"/>
<ellipse cx="80.9455" cy="60.5118" rx="3.10183" ry="3.47873" transform="rotate(21.0645 80.9455 60.5118)" fill="#C1E5C0"/>
<ellipse cx="90.208" cy="64.0794" rx="3.10183" ry="3.47873" transform="rotate(21.0645 90.208 64.0794)" fill="#C1E5C0"/>
<ellipse cx="99.4706" cy="67.6468" rx="3.10183" ry="3.47873" transform="rotate(21.0645 99.4706 67.6468)" fill="#C1E5C0"/>
<ellipse cx="108.733" cy="71.2144" rx="3.10183" ry="3.47873" transform="rotate(21.0645 108.733 71.2144)" fill="#C1E5C0"/>
<ellipse cx="117.996" cy="74.782" rx="3.10183" ry="3.47873" transform="rotate(21.0645 117.996 74.782)" fill="#C1E5C0"/>
<ellipse cx="127.258" cy="78.3494" rx="3.10183" ry="3.47873" transform="rotate(21.0645 127.258 78.3494)" fill="#C1E5C0"/>
<ellipse cx="136.521" cy="81.917" rx="3.10183" ry="3.47873" transform="rotate(21.0645 136.521 81.917)" fill="#C1E5C0"/>
<ellipse cx="49.6569" cy="58.8985" rx="3.10183" ry="3.47873" transform="rotate(21.0645 49.6569 58.8985)" fill="#C1E5C0"/>
<ellipse cx="58.9193" cy="62.4659" rx="3.10183" ry="3.47873" transform="rotate(21.0645 58.9193 62.4659)" fill="#C1E5C0"/>
<ellipse cx="68.182" cy="66.0335" rx="3.10183" ry="3.47873" transform="rotate(21.0645 68.182 66.0335)" fill="#C1E5C0"/>
<ellipse cx="77.4445" cy="69.6011" rx="3.10183" ry="3.47873" transform="rotate(21.0645 77.4445 69.6011)" fill="#C1E5C0"/>
<ellipse cx="86.7071" cy="73.1687" rx="3.10183" ry="3.47873" transform="rotate(21.0645 86.7071 73.1687)" fill="#C1E5C0"/>
<ellipse cx="95.9697" cy="76.7361" rx="3.10183" ry="3.47873" transform="rotate(21.0645 95.9697 76.7361)" fill="#C1E5C0"/>
<ellipse cx="105.232" cy="80.3038" rx="3.10183" ry="3.47873" transform="rotate(21.0645 105.232 80.3038)" fill="#C1E5C0"/>
<ellipse cx="114.495" cy="83.8714" rx="3.10183" ry="3.47873" transform="rotate(21.0645 114.495 83.8714)" fill="#C1E5C0"/>
<ellipse cx="123.757" cy="87.4388" rx="3.10183" ry="3.47873" transform="rotate(21.0645 123.757 87.4388)" fill="#C1E5C0"/>
<ellipse cx="133.02" cy="91.0064" rx="3.10183" ry="3.47873" transform="rotate(21.0645 133.02 91.0064)" fill="#C1E5C0"/>
<ellipse cx="46.1559" cy="67.9881" rx="3.10183" ry="3.47873" transform="rotate(21.0645 46.1559 67.9881)" fill="#C1E5C0"/>
<ellipse cx="55.4186" cy="71.5557" rx="3.10183" ry="3.47873" transform="rotate(21.0645 55.4186 71.5557)" fill="#C1E5C0"/>
<ellipse cx="64.6811" cy="75.1233" rx="3.10183" ry="3.47873" transform="rotate(21.0645 64.6811 75.1233)" fill="#C1E5C0"/>
<ellipse cx="73.9437" cy="78.6907" rx="3.10183" ry="3.47873" transform="rotate(21.0645 73.9437 78.6907)" fill="#C1E5C0"/>
<ellipse cx="83.2062" cy="82.2583" rx="3.10183" ry="3.47873" transform="rotate(21.0645 83.2062 82.2583)" fill="#C1E5C0"/>
<ellipse cx="92.4689" cy="85.826" rx="3.10183" ry="3.47873" transform="rotate(21.0645 92.4689 85.826)" fill="#C1E5C0"/>
<ellipse cx="101.731" cy="89.3934" rx="3.10183" ry="3.47873" transform="rotate(21.0645 101.731 89.3934)" fill="#C1E5C0"/>
<ellipse cx="110.994" cy="92.961" rx="3.10183" ry="3.47873" transform="rotate(21.0645 110.994 92.961)" fill="#C1E5C0"/>
<ellipse cx="120.257" cy="96.5286" rx="3.10183" ry="3.47873" transform="rotate(21.0645 120.257 96.5286)" fill="#C1E5C0"/>
<ellipse cx="129.519" cy="100.096" rx="3.10183" ry="3.47873" transform="rotate(21.0645 129.519 100.096)" fill="#C1E5C0"/>
<ellipse cx="42.655" cy="77.0777" rx="3.10183" ry="3.47873" transform="rotate(21.0645 42.655 77.0777)" fill="#C1E5C0"/>
<ellipse cx="51.9177" cy="80.6451" rx="3.10183" ry="3.47873" transform="rotate(21.0645 51.9177 80.6451)" fill="#C1E5C0"/>
<ellipse cx="61.1802" cy="84.2127" rx="3.10183" ry="3.47873" transform="rotate(21.0645 61.1802 84.2127)" fill="#C1E5C0"/>
<ellipse cx="70.4429" cy="87.7803" rx="3.10183" ry="3.47873" transform="rotate(21.0645 70.4429 87.7803)" fill="#C1E5C0"/>
<ellipse cx="79.7053" cy="91.3477" rx="3.10183" ry="3.47873" transform="rotate(21.0645 79.7053 91.3477)" fill="#C1E5C0"/>
<ellipse cx="88.9679" cy="94.9153" rx="3.10183" ry="3.47873" transform="rotate(21.0645 88.9679 94.9153)" fill="#C1E5C0"/>
<ellipse cx="98.2305" cy="98.483" rx="3.10183" ry="3.47873" transform="rotate(21.0645 98.2305 98.483)" fill="#C1E5C0"/>
<ellipse cx="107.493" cy="102.05" rx="3.10183" ry="3.47873" transform="rotate(21.0645 107.493 102.05)" fill="#C1E5C0"/>
<ellipse cx="116.756" cy="105.618" rx="3.10183" ry="3.47873" transform="rotate(21.0645 116.756 105.618)" fill="#C1E5C0"/>
<ellipse cx="126.018" cy="109.186" rx="3.10183" ry="3.47873" transform="rotate(21.0645 126.018 109.186)" fill="#C1E5C0"/>
<ellipse cx="39.1541" cy="86.1673" rx="3.10183" ry="3.47873" transform="rotate(21.0645 39.1541 86.1673)" fill="#C1E5C0"/>
<ellipse cx="48.4166" cy="89.7349" rx="3.10183" ry="3.47873" transform="rotate(21.0645 48.4166 89.7349)" fill="#C1E5C0"/>
<ellipse cx="57.6792" cy="93.3025" rx="3.10183" ry="3.47873" transform="rotate(21.0645 57.6792 93.3025)" fill="#C1E5C0"/>
<ellipse cx="66.9417" cy="96.8699" rx="3.10183" ry="3.47873" transform="rotate(21.0645 66.9417 96.8699)" fill="#C1E5C0"/>
<ellipse cx="76.2043" cy="100.438" rx="3.10183" ry="3.47873" transform="rotate(21.0645 76.2043 100.438)" fill="#C1E5C0"/>
<ellipse cx="85.4669" cy="104.005" rx="3.10183" ry="3.47873" transform="rotate(21.0645 85.4669 104.005)" fill="#C1E5C0"/>
<ellipse cx="94.7294" cy="107.573" rx="3.10183" ry="3.47873" transform="rotate(21.0645 94.7294 107.573)" fill="#C1E5C0"/>
<ellipse cx="103.992" cy="111.14" rx="3.10183" ry="3.47873" transform="rotate(21.0645 103.992 111.14)" fill="#C1E5C0"/>
<ellipse cx="113.255" cy="114.708" rx="3.10183" ry="3.47873" transform="rotate(21.0645 113.255 114.708)" fill="#C1E5C0"/>
<ellipse cx="122.517" cy="118.275" rx="3.10183" ry="3.47873" transform="rotate(21.0645 122.517 118.275)" fill="#C1E5C0"/>
<ellipse cx="162.709" cy="39.8138" rx="3.10183" ry="3.47873" transform="rotate(21.0645 162.709 39.8138)" fill="#C1E5C0"/>
<ellipse cx="171.972" cy="43.3811" rx="3.10183" ry="3.47873" transform="rotate(21.0645 171.972 43.3811)" fill="#C1E5C0"/>
<ellipse cx="181.234" cy="46.9488" rx="3.10183" ry="3.47873" transform="rotate(21.0645 181.234 46.9488)" fill="#C1E5C0"/>
<ellipse cx="190.497" cy="50.5164" rx="3.10183" ry="3.47873" transform="rotate(21.0645 190.497 50.5164)" fill="#C1E5C0"/>
<ellipse cx="199.76" cy="54.084" rx="3.10183" ry="3.47873" transform="rotate(21.0645 199.76 54.084)" fill="#C1E5C0"/>
<ellipse cx="209.022" cy="57.6514" rx="3.10183" ry="3.47873" transform="rotate(21.0645 209.022 57.6514)" fill="#C1E5C0"/>
<ellipse cx="218.285" cy="61.219" rx="3.10183" ry="3.47873" transform="rotate(21.0645 218.285 61.219)" fill="#C1E5C0"/>
<ellipse cx="227.547" cy="64.7864" rx="3.10183" ry="3.47873" transform="rotate(21.0645 227.547 64.7864)" fill="#C1E5C0"/>
<ellipse cx="236.81" cy="68.354" rx="3.10183" ry="3.47873" transform="rotate(21.0645 236.81 68.354)" fill="#C1E5C0"/>
<ellipse cx="246.072" cy="71.9217" rx="3.10183" ry="3.47873" transform="rotate(21.0645 246.072 71.9217)" fill="#C1E5C0"/>
<ellipse cx="159.208" cy="48.9034" rx="3.10183" ry="3.47873" transform="rotate(21.0645 159.208 48.9034)" fill="#C1E5C0"/>
<ellipse cx="168.471" cy="52.471" rx="3.10183" ry="3.47873" transform="rotate(21.0645 168.471 52.471)" fill="#C1E5C0"/>
<ellipse cx="177.733" cy="56.0384" rx="3.10183" ry="3.47873" transform="rotate(21.0645 177.733 56.0384)" fill="#C1E5C0"/>
<ellipse cx="186.996" cy="59.606" rx="3.10183" ry="3.47873" transform="rotate(21.0645 186.996 59.606)" fill="#C1E5C0"/>
<ellipse cx="196.259" cy="63.1736" rx="3.10183" ry="3.47873" transform="rotate(21.0645 196.259 63.1736)" fill="#C1E5C0"/>
<ellipse cx="205.521" cy="66.741" rx="3.10183" ry="3.47873" transform="rotate(21.0645 205.521 66.741)" fill="#C1E5C0"/>
<ellipse cx="214.784" cy="70.3086" rx="3.10183" ry="3.47873" transform="rotate(21.0645 214.784 70.3086)" fill="#C1E5C0"/>
<ellipse cx="224.046" cy="73.8763" rx="3.10183" ry="3.47873" transform="rotate(21.0645 224.046 73.8763)" fill="#C1E5C0"/>
<ellipse cx="233.309" cy="77.4436" rx="3.10183" ry="3.47873" transform="rotate(21.0645 233.309 77.4436)" fill="#C1E5C0"/>
<ellipse cx="242.571" cy="81.0113" rx="3.10183" ry="3.47873" transform="rotate(21.0645 242.571 81.0113)" fill="#C1E5C0"/>
<ellipse cx="155.707" cy="57.993" rx="3.10183" ry="3.47873" transform="rotate(21.0645 155.707 57.993)" fill="#C1E5C0"/>
<ellipse cx="164.97" cy="61.5603" rx="3.10183" ry="3.47873" transform="rotate(21.0645 164.97 61.5603)" fill="#C1E5C0"/>
<ellipse cx="174.233" cy="65.128" rx="3.10183" ry="3.47873" transform="rotate(21.0645 174.233 65.128)" fill="#C1E5C0"/>
<ellipse cx="183.495" cy="68.6956" rx="3.10183" ry="3.47873" transform="rotate(21.0645 183.495 68.6956)" fill="#C1E5C0"/>
<ellipse cx="192.758" cy="72.2632" rx="3.10183" ry="3.47873" transform="rotate(21.0645 192.758 72.2632)" fill="#C1E5C0"/>
<ellipse cx="202.02" cy="75.8306" rx="3.10183" ry="3.47873" transform="rotate(21.0645 202.02 75.8306)" fill="#C1E5C0"/>
<ellipse cx="211.283" cy="79.3982" rx="3.10183" ry="3.47873" transform="rotate(21.0645 211.283 79.3982)" fill="#C1E5C0"/>
<ellipse cx="220.545" cy="82.9659" rx="3.10183" ry="3.47873" transform="rotate(21.0645 220.545 82.9659)" fill="#C1E5C0"/>
<ellipse cx="229.808" cy="86.5332" rx="3.10183" ry="3.47873" transform="rotate(21.0645 229.808 86.5332)" fill="#C1E5C0"/>
<ellipse cx="239.07" cy="90.1009" rx="3.10183" ry="3.47873" transform="rotate(21.0645 239.07 90.1009)" fill="#C1E5C0"/>
<ellipse cx="152.206" cy="67.0826" rx="3.10183" ry="3.47873" transform="rotate(21.0645 152.206 67.0826)" fill="#C1E5C0"/>
<ellipse cx="161.469" cy="70.6499" rx="3.10183" ry="3.47873" transform="rotate(21.0645 161.469 70.6499)" fill="#C1E5C0"/>
<ellipse cx="170.732" cy="74.2176" rx="3.10183" ry="3.47873" transform="rotate(21.0645 170.732 74.2176)" fill="#C1E5C0"/>
<ellipse cx="179.994" cy="77.7852" rx="3.10183" ry="3.47873" transform="rotate(21.0645 179.994 77.7852)" fill="#C1E5C0"/>
<ellipse cx="189.257" cy="81.3526" rx="3.10183" ry="3.47873" transform="rotate(21.0645 189.257 81.3526)" fill="#C1E5C0"/>
<ellipse cx="198.519" cy="84.9202" rx="3.10183" ry="3.47873" transform="rotate(21.0645 198.519 84.9202)" fill="#C1E5C0"/>
<ellipse cx="207.782" cy="88.4878" rx="3.10183" ry="3.47873" transform="rotate(21.0645 207.782 88.4878)" fill="#C1E5C0"/>
<ellipse cx="217.044" cy="92.0552" rx="3.10183" ry="3.47873" transform="rotate(21.0645 217.044 92.0552)" fill="#C1E5C0"/>
<ellipse cx="226.307" cy="95.6228" rx="3.10183" ry="3.47873" transform="rotate(21.0645 226.307 95.6228)" fill="#C1E5C0"/>
<ellipse cx="235.57" cy="99.1905" rx="3.10183" ry="3.47873" transform="rotate(21.0645 235.57 99.1905)" fill="#C1E5C0"/>
<ellipse cx="148.706" cy="76.1722" rx="3.10183" ry="3.47873" transform="rotate(21.0645 148.706 76.1722)" fill="#C1E5C0"/>
<ellipse cx="157.968" cy="79.7398" rx="3.10183" ry="3.47873" transform="rotate(21.0645 157.968 79.7398)" fill="#C1E5C0"/>
<ellipse cx="167.231" cy="83.3072" rx="3.10183" ry="3.47873" transform="rotate(21.0645 167.231 83.3072)" fill="#C1E5C0"/>
<ellipse cx="176.493" cy="86.8748" rx="3.10183" ry="3.47873" transform="rotate(21.0645 176.493 86.8748)" fill="#C1E5C0"/>
<ellipse cx="185.756" cy="90.4424" rx="3.10183" ry="3.47873" transform="rotate(21.0645 185.756 90.4424)" fill="#C1E5C0"/>
<ellipse cx="195.018" cy="94.0098" rx="3.10183" ry="3.47873" transform="rotate(21.0645 195.018 94.0098)" fill="#C1E5C0"/>
<ellipse cx="204.281" cy="97.5774" rx="3.10183" ry="3.47873" transform="rotate(21.0645 204.281 97.5774)" fill="#C1E5C0"/>
<ellipse cx="213.544" cy="101.145" rx="3.10183" ry="3.47873" transform="rotate(21.0645 213.544 101.145)" fill="#C1E5C0"/>
<ellipse cx="222.806" cy="104.712" rx="3.10183" ry="3.47873" transform="rotate(21.0645 222.806 104.712)" fill="#C1E5C0"/>
<ellipse cx="232.069" cy="108.28" rx="3.10183" ry="3.47873" transform="rotate(21.0645 232.069 108.28)" fill="#C1E5C0"/>
<ellipse cx="145.205" cy="85.2615" rx="3.10183" ry="3.47873" transform="rotate(21.0645 145.205 85.2615)" fill="#C1E5C0"/>
<ellipse cx="154.467" cy="88.8291" rx="3.10183" ry="3.47873" transform="rotate(21.0645 154.467 88.8291)" fill="#C1E5C0"/>
<ellipse cx="163.73" cy="92.3968" rx="3.10183" ry="3.47873" transform="rotate(21.0645 163.73 92.3968)" fill="#C1E5C0"/>
<ellipse cx="172.992" cy="95.9642" rx="3.10183" ry="3.47873" transform="rotate(21.0645 172.992 95.9642)" fill="#C1E5C0"/>
<ellipse cx="182.255" cy="99.5318" rx="3.10183" ry="3.47873" transform="rotate(21.0645 182.255 99.5318)" fill="#C1E5C0"/>
<ellipse cx="191.518" cy="103.099" rx="3.10183" ry="3.47873" transform="rotate(21.0645 191.518 103.099)" fill="#C1E5C0"/>
<ellipse cx="200.78" cy="106.667" rx="3.10183" ry="3.47873" transform="rotate(21.0645 200.78 106.667)" fill="#C1E5C0"/>
<ellipse cx="210.043" cy="110.234" rx="3.10183" ry="3.47873" transform="rotate(21.0645 210.043 110.234)" fill="#C1E5C0"/>
<ellipse cx="219.305" cy="113.802" rx="3.10183" ry="3.47873" transform="rotate(21.0645 219.305 113.802)" fill="#C1E5C0"/>
<ellipse cx="228.568" cy="117.369" rx="3.10183" ry="3.47873" transform="rotate(21.0645 228.568 117.369)" fill="#C1E5C0"/>
<ellipse cx="141.704" cy="94.3511" rx="3.10183" ry="3.47873" transform="rotate(21.0645 141.704 94.3511)" fill="#C1E5C0"/>
<ellipse cx="150.966" cy="97.9187" rx="3.10183" ry="3.47873" transform="rotate(21.0645 150.966 97.9187)" fill="#C1E5C0"/>
<ellipse cx="160.229" cy="101.486" rx="3.10183" ry="3.47873" transform="rotate(21.0645 160.229 101.486)" fill="#C1E5C0"/>
<ellipse cx="169.492" cy="105.054" rx="3.10183" ry="3.47873" transform="rotate(21.0645 169.492 105.054)" fill="#C1E5C0"/>
<ellipse cx="178.754" cy="108.621" rx="3.10183" ry="3.47873" transform="rotate(21.0645 178.754 108.621)" fill="#C1E5C0"/>
<ellipse cx="188.017" cy="112.189" rx="3.10183" ry="3.47873" transform="rotate(21.0645 188.017 112.189)" fill="#C1E5C0"/>
<ellipse cx="197.279" cy="115.756" rx="3.10183" ry="3.47873" transform="rotate(21.0645 197.279 115.756)" fill="#C1E5C0"/>
<ellipse cx="206.542" cy="119.324" rx="3.10183" ry="3.47873" transform="rotate(21.0645 206.542 119.324)" fill="#C1E5C0"/>
<ellipse cx="215.805" cy="122.891" rx="3.10183" ry="3.47873" transform="rotate(21.0645 215.805 122.891)" fill="#C1E5C0"/>
<ellipse cx="225.067" cy="126.459" rx="3.10183" ry="3.47873" transform="rotate(21.0645 225.067 126.459)" fill="#C1E5C0"/>
<ellipse cx="138.203" cy="103.441" rx="3.10183" ry="3.47873" transform="rotate(21.0645 138.203 103.441)" fill="#C1E5C0"/>
<ellipse cx="147.466" cy="107.008" rx="3.10183" ry="3.47873" transform="rotate(21.0645 147.466 107.008)" fill="#C1E5C0"/>
<ellipse cx="156.728" cy="110.576" rx="3.10183" ry="3.47873" transform="rotate(21.0645 156.728 110.576)" fill="#C1E5C0"/>
<ellipse cx="165.991" cy="114.143" rx="3.10183" ry="3.47873" transform="rotate(21.0645 165.991 114.143)" fill="#C1E5C0"/>
<ellipse cx="175.253" cy="117.711" rx="3.10183" ry="3.47873" transform="rotate(21.0645 175.253 117.711)" fill="#C1E5C0"/>
<ellipse cx="184.516" cy="121.278" rx="3.10183" ry="3.47873" transform="rotate(21.0645 184.516 121.278)" fill="#C1E5C0"/>
<ellipse cx="193.778" cy="124.846" rx="3.10183" ry="3.47873" transform="rotate(21.0645 193.778 124.846)" fill="#C1E5C0"/>
<ellipse cx="203.041" cy="128.414" rx="3.10183" ry="3.47873" transform="rotate(21.0645 203.041 128.414)" fill="#C1E5C0"/>
<ellipse cx="212.304" cy="131.981" rx="3.10183" ry="3.47873" transform="rotate(21.0645 212.304 131.981)" fill="#C1E5C0"/>
<ellipse cx="221.566" cy="135.549" rx="3.10183" ry="3.47873" transform="rotate(21.0645 221.566 135.549)" fill="#C1E5C0"/>
<ellipse cx="134.702" cy="112.53" rx="3.10183" ry="3.47873" transform="rotate(21.0645 134.702 112.53)" fill="#C1E5C0"/>
<ellipse cx="143.965" cy="116.098" rx="3.10183" ry="3.47873" transform="rotate(21.0645 143.965 116.098)" fill="#C1E5C0"/>
<ellipse cx="153.227" cy="119.665" rx="3.10183" ry="3.47873" transform="rotate(21.0645 153.227 119.665)" fill="#C1E5C0"/>
<ellipse cx="162.49" cy="123.233" rx="3.10183" ry="3.47873" transform="rotate(21.0645 162.49 123.233)" fill="#C1E5C0"/>
<ellipse cx="171.752" cy="126.801" rx="3.10183" ry="3.47873" transform="rotate(21.0645 171.752 126.801)" fill="#C1E5C0"/>
<ellipse cx="181.015" cy="130.368" rx="3.10183" ry="3.47873" transform="rotate(21.0645 181.015 130.368)" fill="#C1E5C0"/>
<ellipse cx="190.277" cy="133.936" rx="3.10183" ry="3.47873" transform="rotate(21.0645 190.277 133.936)" fill="#C1E5C0"/>
<ellipse cx="199.54" cy="137.503" rx="3.10183" ry="3.47873" transform="rotate(21.0645 199.54 137.503)" fill="#C1E5C0"/>
<ellipse cx="208.803" cy="141.071" rx="3.10183" ry="3.47873" transform="rotate(21.0645 208.803 141.071)" fill="#C1E5C0"/>
<ellipse cx="218.065" cy="144.638" rx="3.10183" ry="3.47873" transform="rotate(21.0645 218.065 144.638)" fill="#C1E5C0"/>
<ellipse cx="131.201" cy="121.62" rx="3.10183" ry="3.47873" transform="rotate(21.0645 131.201 121.62)" fill="#C1E5C0"/>
<ellipse cx="140.464" cy="125.188" rx="3.10183" ry="3.47873" transform="rotate(21.0645 140.464 125.188)" fill="#C1E5C0"/>
<ellipse cx="149.726" cy="128.755" rx="3.10183" ry="3.47873" transform="rotate(21.0645 149.726 128.755)" fill="#C1E5C0"/>
<ellipse cx="158.989" cy="132.323" rx="3.10183" ry="3.47873" transform="rotate(21.0645 158.989 132.323)" fill="#C1E5C0"/>
<ellipse cx="168.252" cy="135.89" rx="3.10183" ry="3.47873" transform="rotate(21.0645 168.252 135.89)" fill="#C1E5C0"/>
<ellipse cx="177.514" cy="139.458" rx="3.10183" ry="3.47873" transform="rotate(21.0645 177.514 139.458)" fill="#C1E5C0"/>
<ellipse cx="186.777" cy="143.025" rx="3.10183" ry="3.47873" transform="rotate(21.0645 186.777 143.025)" fill="#C1E5C0"/>
<ellipse cx="196.039" cy="146.593" rx="3.10183" ry="3.47873" transform="rotate(21.0645 196.039 146.593)" fill="#C1E5C0"/>
<ellipse cx="205.302" cy="150.16" rx="3.10183" ry="3.47873" transform="rotate(21.0645 205.302 150.16)" fill="#C1E5C0"/>
<ellipse cx="214.564" cy="153.728" rx="3.10183" ry="3.47873" transform="rotate(21.0645 214.564 153.728)" fill="#C1E5C0"/>
<ellipse cx="35.6532" cy="95.2566" rx="3.10183" ry="3.47873" transform="rotate(21.0645 35.6532 95.2566)" fill="#C1E5C0"/>
<ellipse cx="44.9158" cy="98.824" rx="3.10183" ry="3.47873" transform="rotate(21.0645 44.9158 98.824)" fill="#C1E5C0"/>
<ellipse cx="54.1783" cy="102.392" rx="3.10183" ry="3.47873" transform="rotate(21.0645 54.1783 102.392)" fill="#C1E5C0"/>
<ellipse cx="63.4408" cy="105.959" rx="3.10183" ry="3.47873" transform="rotate(21.0645 63.4408 105.959)" fill="#C1E5C0"/>
<ellipse cx="72.7034" cy="109.527" rx="3.10183" ry="3.47873" transform="rotate(21.0645 72.7034 109.527)" fill="#C1E5C0"/>
<ellipse cx="81.966" cy="113.094" rx="3.10183" ry="3.47873" transform="rotate(21.0645 81.966 113.094)" fill="#C1E5C0"/>
<ellipse cx="91.2286" cy="116.662" rx="3.10183" ry="3.47873" transform="rotate(21.0645 91.2286 116.662)" fill="#C1E5C0"/>
<ellipse cx="100.491" cy="120.229" rx="3.10183" ry="3.47873" transform="rotate(21.0645 100.491 120.229)" fill="#C1E5C0"/>
<ellipse cx="109.754" cy="123.797" rx="3.10183" ry="3.47873" transform="rotate(21.0645 109.754 123.797)" fill="#C1E5C0"/>
<ellipse cx="119.016" cy="127.365" rx="3.10183" ry="3.47873" transform="rotate(21.0645 119.016 127.365)" fill="#C1E5C0"/>
<ellipse cx="32.1523" cy="104.346" rx="3.10183" ry="3.47873" transform="rotate(21.0645 32.1523 104.346)" fill="#C1E5C0"/>
<ellipse cx="41.4149" cy="107.914" rx="3.10183" ry="3.47873" transform="rotate(21.0645 41.4149 107.914)" fill="#C1E5C0"/>
<ellipse cx="50.6774" cy="111.481" rx="3.10183" ry="3.47873" transform="rotate(21.0645 50.6774 111.481)" fill="#C1E5C0"/>
<ellipse cx="59.9399" cy="115.049" rx="3.10183" ry="3.47873" transform="rotate(21.0645 59.9399 115.049)" fill="#C1E5C0"/>
<ellipse cx="69.2026" cy="118.617" rx="3.10183" ry="3.47873" transform="rotate(21.0645 69.2026 118.617)" fill="#C1E5C0"/>
<ellipse cx="78.465" cy="122.184" rx="3.10183" ry="3.47873" transform="rotate(21.0645 78.465 122.184)" fill="#C1E5C0"/>
<ellipse cx="87.7277" cy="125.752" rx="3.10183" ry="3.47873" transform="rotate(21.0645 87.7277 125.752)" fill="#C1E5C0"/>
<ellipse cx="96.9903" cy="129.319" rx="3.10183" ry="3.47873" transform="rotate(21.0645 96.9903 129.319)" fill="#C1E5C0"/>
<ellipse cx="106.253" cy="132.887" rx="3.10183" ry="3.47873" transform="rotate(21.0645 106.253 132.887)" fill="#C1E5C0"/>
<ellipse cx="115.515" cy="136.454" rx="3.10183" ry="3.47873" transform="rotate(21.0645 115.515 136.454)" fill="#C1E5C0"/>
<ellipse cx="28.6512" cy="113.436" rx="3.10183" ry="3.47873" transform="rotate(21.0645 28.6512 113.436)" fill="#C1E5C0"/>
<ellipse cx="37.9138" cy="117.003" rx="3.10183" ry="3.47873" transform="rotate(21.0645 37.9138 117.003)" fill="#C1E5C0"/>
<ellipse cx="47.1764" cy="120.571" rx="3.10183" ry="3.47873" transform="rotate(21.0645 47.1764 120.571)" fill="#C1E5C0"/>
<ellipse cx="56.4388" cy="124.138" rx="3.10183" ry="3.47873" transform="rotate(21.0645 56.4388 124.138)" fill="#C1E5C0"/>
<ellipse cx="65.7015" cy="127.706" rx="3.10183" ry="3.47873" transform="rotate(21.0645 65.7015 127.706)" fill="#C1E5C0"/>
<ellipse cx="74.9641" cy="131.274" rx="3.10183" ry="3.47873" transform="rotate(21.0645 74.9641 131.274)" fill="#C1E5C0"/>
<ellipse cx="84.2267" cy="134.841" rx="3.10183" ry="3.47873" transform="rotate(21.0645 84.2267 134.841)" fill="#C1E5C0"/>
<ellipse cx="93.4892" cy="138.409" rx="3.10183" ry="3.47873" transform="rotate(21.0645 93.4892 138.409)" fill="#C1E5C0"/>
<ellipse cx="102.752" cy="141.976" rx="3.10183" ry="3.47873" transform="rotate(21.0645 102.752 141.976)" fill="#C1E5C0"/>
<ellipse cx="112.014" cy="145.544" rx="3.10183" ry="3.47873" transform="rotate(21.0645 112.014 145.544)" fill="#C1E5C0"/>
<ellipse cx="25.1505" cy="122.525" rx="3.10183" ry="3.47873" transform="rotate(21.0645 25.1505 122.525)" fill="#C1E5C0"/>
<ellipse cx="34.4132" cy="126.093" rx="3.10183" ry="3.47873" transform="rotate(21.0645 34.4132 126.093)" fill="#C1E5C0"/>
<ellipse cx="43.6756" cy="129.66" rx="3.10183" ry="3.47873" transform="rotate(21.0645 43.6756 129.66)" fill="#C1E5C0"/>
<ellipse cx="52.9382" cy="133.228" rx="3.10183" ry="3.47873" transform="rotate(21.0645 52.9382 133.228)" fill="#C1E5C0"/>
<ellipse cx="62.2007" cy="136.795" rx="3.10183" ry="3.47873" transform="rotate(21.0645 62.2007 136.795)" fill="#C1E5C0"/>
<ellipse cx="71.4633" cy="140.363" rx="3.10183" ry="3.47873" transform="rotate(21.0645 71.4633 140.363)" fill="#C1E5C0"/>
<ellipse cx="80.7259" cy="143.93" rx="3.10183" ry="3.47873" transform="rotate(21.0645 80.7259 143.93)" fill="#C1E5C0"/>
<ellipse cx="89.9883" cy="147.498" rx="3.10183" ry="3.47873" transform="rotate(21.0645 89.9883 147.498)" fill="#C1E5C0"/>
<ellipse cx="99.251" cy="151.065" rx="3.10183" ry="3.47873" transform="rotate(21.0645 99.251 151.065)" fill="#C1E5C0"/>
<ellipse cx="108.513" cy="154.633" rx="3.10183" ry="3.47873" transform="rotate(21.0645 108.513 154.633)" fill="#C1E5C0"/>
<ellipse cx="21.6496" cy="131.615" rx="3.10183" ry="3.47873" transform="rotate(21.0645 21.6496 131.615)" fill="#C1E5C0"/>
<ellipse cx="30.9122" cy="135.182" rx="3.10183" ry="3.47873" transform="rotate(21.0645 30.9122 135.182)" fill="#C1E5C0"/>
<ellipse cx="40.1747" cy="138.75" rx="3.10183" ry="3.47873" transform="rotate(21.0645 40.1747 138.75)" fill="#C1E5C0"/>
<ellipse cx="49.4374" cy="142.317" rx="3.10183" ry="3.47873" transform="rotate(21.0645 49.4374 142.317)" fill="#C1E5C0"/>
<ellipse cx="58.6999" cy="145.885" rx="3.10183" ry="3.47873" transform="rotate(21.0645 58.6999 145.885)" fill="#C1E5C0"/>
<ellipse cx="67.9625" cy="149.452" rx="3.10183" ry="3.47873" transform="rotate(21.0645 67.9625 149.452)" fill="#C1E5C0"/>
<ellipse cx="77.225" cy="153.02" rx="3.10183" ry="3.47873" transform="rotate(21.0645 77.225 153.02)" fill="#C1E5C0"/>
<ellipse cx="86.4875" cy="156.587" rx="3.10183" ry="3.47873" transform="rotate(21.0645 86.4875 156.587)" fill="#C1E5C0"/>
<ellipse cx="95.7502" cy="160.155" rx="3.10183" ry="3.47873" transform="rotate(21.0645 95.7502 160.155)" fill="#C1E5C0"/>
<ellipse cx="105.013" cy="163.723" rx="3.10183" ry="3.47873" transform="rotate(21.0645 105.013 163.723)" fill="#C1E5C0"/>
<ellipse cx="18.1486" cy="140.704" rx="3.10183" ry="3.47873" transform="rotate(21.0645 18.1486 140.704)" fill="#C1E5C0"/>
<ellipse cx="27.4111" cy="144.272" rx="3.10183" ry="3.47873" transform="rotate(21.0645 27.4111 144.272)" fill="#C1E5C0"/>
<ellipse cx="36.6738" cy="147.839" rx="3.10183" ry="3.47873" transform="rotate(21.0645 36.6738 147.839)" fill="#C1E5C0"/>
<ellipse cx="45.9363" cy="151.407" rx="3.10183" ry="3.47873" transform="rotate(21.0645 45.9363 151.407)" fill="#C1E5C0"/>
<ellipse cx="55.1989" cy="154.975" rx="3.10183" ry="3.47873" transform="rotate(21.0645 55.1989 154.975)" fill="#C1E5C0"/>
<ellipse cx="64.4615" cy="158.542" rx="3.10183" ry="3.47873" transform="rotate(21.0645 64.4615 158.542)" fill="#C1E5C0"/>
<ellipse cx="73.7241" cy="162.11" rx="3.10183" ry="3.47873" transform="rotate(21.0645 73.7241 162.11)" fill="#C1E5C0"/>
<ellipse cx="82.9865" cy="165.677" rx="3.10183" ry="3.47873" transform="rotate(21.0645 82.9865 165.677)" fill="#C1E5C0"/>
<ellipse cx="92.2491" cy="169.245" rx="3.10183" ry="3.47873" transform="rotate(21.0645 92.2491 169.245)" fill="#C1E5C0"/>
<ellipse cx="101.512" cy="172.812" rx="3.10183" ry="3.47873" transform="rotate(21.0645 101.512 172.812)" fill="#C1E5C0"/>
<ellipse cx="14.6478" cy="149.794" rx="3.10183" ry="3.47873" transform="rotate(21.0645 14.6478 149.794)" fill="#C1E5C0"/>
<ellipse cx="23.9103" cy="153.362" rx="3.10183" ry="3.47873" transform="rotate(21.0645 23.9103 153.362)" fill="#C1E5C0"/>
<ellipse cx="33.1729" cy="156.929" rx="3.10183" ry="3.47873" transform="rotate(21.0645 33.1729 156.929)" fill="#C1E5C0"/>
<ellipse cx="42.4355" cy="160.497" rx="3.10183" ry="3.47873" transform="rotate(21.0645 42.4355 160.497)" fill="#C1E5C0"/>
<ellipse cx="51.698" cy="164.064" rx="3.10183" ry="3.47873" transform="rotate(21.0645 51.698 164.064)" fill="#C1E5C0"/>
<ellipse cx="60.9605" cy="167.632" rx="3.10183" ry="3.47873" transform="rotate(21.0645 60.9605 167.632)" fill="#C1E5C0"/>
<ellipse cx="70.2231" cy="171.199" rx="3.10183" ry="3.47873" transform="rotate(21.0645 70.2231 171.199)" fill="#C1E5C0"/>
<ellipse cx="79.4857" cy="174.767" rx="3.10183" ry="3.47873" transform="rotate(21.0645 79.4857 174.767)" fill="#C1E5C0"/>
<ellipse cx="88.7483" cy="178.334" rx="3.10183" ry="3.47873" transform="rotate(21.0645 88.7483 178.334)" fill="#C1E5C0"/>
<ellipse cx="98.0109" cy="181.902" rx="3.10183" ry="3.47873" transform="rotate(21.0645 98.0109 181.902)" fill="#C1E5C0"/>
<ellipse cx="11.1469" cy="158.884" rx="3.10183" ry="3.47873" transform="rotate(21.0645 11.1469 158.884)" fill="#C1E5C0"/>
<ellipse cx="20.4095" cy="162.451" rx="3.10183" ry="3.47873" transform="rotate(21.0645 20.4095 162.451)" fill="#C1E5C0"/>
<ellipse cx="29.672" cy="166.019" rx="3.10183" ry="3.47873" transform="rotate(21.0645 29.672 166.019)" fill="#C1E5C0"/>
<ellipse cx="38.9347" cy="169.586" rx="3.10183" ry="3.47873" transform="rotate(21.0645 38.9347 169.586)" fill="#C1E5C0"/>
<ellipse cx="48.1971" cy="173.154" rx="3.10183" ry="3.47873" transform="rotate(21.0645 48.1971 173.154)" fill="#C1E5C0"/>
<ellipse cx="57.4596" cy="176.721" rx="3.10183" ry="3.47873" transform="rotate(21.0645 57.4596 176.721)" fill="#C1E5C0"/>
<ellipse cx="66.7223" cy="180.289" rx="3.10183" ry="3.47873" transform="rotate(21.0645 66.7223 180.289)" fill="#C1E5C0"/>
<ellipse cx="75.9849" cy="183.856" rx="3.10183" ry="3.47873" transform="rotate(21.0645 75.9849 183.856)" fill="#C1E5C0"/>
<ellipse cx="85.2474" cy="187.424" rx="3.10183" ry="3.47873" transform="rotate(21.0645 85.2474 187.424)" fill="#C1E5C0"/>
<ellipse cx="94.51" cy="190.992" rx="3.10183" ry="3.47873" transform="rotate(21.0645 94.51 190.992)" fill="#C1E5C0"/>
<ellipse cx="7.64594" cy="167.973" rx="3.10183" ry="3.47873" transform="rotate(21.0645 7.64594 167.973)" fill="#C1E5C0"/>
<ellipse cx="16.9084" cy="171.541" rx="3.10183" ry="3.47873" transform="rotate(21.0645 16.9084 171.541)" fill="#C1E5C0"/>
<ellipse cx="26.1711" cy="175.108" rx="3.10183" ry="3.47873" transform="rotate(21.0645 26.1711 175.108)" fill="#C1E5C0"/>
<ellipse cx="35.4337" cy="178.676" rx="3.10183" ry="3.47873" transform="rotate(21.0645 35.4337 178.676)" fill="#C1E5C0"/>
<ellipse cx="44.6962" cy="182.243" rx="3.10183" ry="3.47873" transform="rotate(21.0645 44.6962 182.243)" fill="#C1E5C0"/>
<ellipse cx="53.9588" cy="185.811" rx="3.10183" ry="3.47873" transform="rotate(21.0645 53.9588 185.811)" fill="#C1E5C0"/>
<ellipse cx="63.2214" cy="189.378" rx="3.10183" ry="3.47873" transform="rotate(21.0645 63.2214 189.378)" fill="#C1E5C0"/>
<ellipse cx="72.4839" cy="192.946" rx="3.10183" ry="3.47873" transform="rotate(21.0645 72.4839 192.946)" fill="#C1E5C0"/>
<ellipse cx="81.7465" cy="196.513" rx="3.10183" ry="3.47873" transform="rotate(21.0645 81.7465 196.513)" fill="#C1E5C0"/>
<ellipse cx="91.009" cy="200.081" rx="3.10183" ry="3.47873" transform="rotate(21.0645 91.009 200.081)" fill="#C1E5C0"/>
<ellipse cx="4.1449" cy="177.063" rx="3.10183" ry="3.47873" transform="rotate(21.0645 4.1449 177.063)" fill="#C1E5C0"/>
<ellipse cx="13.4076" cy="180.63" rx="3.10183" ry="3.47873" transform="rotate(21.0645 13.4076 180.63)" fill="#C1E5C0"/>
<ellipse cx="22.67" cy="184.198" rx="3.10183" ry="3.47873" transform="rotate(21.0645 22.67 184.198)" fill="#C1E5C0"/>
<ellipse cx="31.9326" cy="187.765" rx="3.10183" ry="3.47873" transform="rotate(21.0645 31.9326 187.765)" fill="#C1E5C0"/>
<ellipse cx="41.1952" cy="191.333" rx="3.10183" ry="3.47873" transform="rotate(21.0645 41.1952 191.333)" fill="#C1E5C0"/>
<ellipse cx="50.4576" cy="194.9" rx="3.10183" ry="3.47873" transform="rotate(21.0645 50.4576 194.9)" fill="#C1E5C0"/>
<ellipse cx="59.7203" cy="198.468" rx="3.10183" ry="3.47873" transform="rotate(21.0645 59.7203 198.468)" fill="#C1E5C0"/>
<ellipse cx="68.983" cy="202.035" rx="3.10183" ry="3.47873" transform="rotate(21.0645 68.983 202.035)" fill="#C1E5C0"/>
<ellipse cx="78.2454" cy="205.603" rx="3.10183" ry="3.47873" transform="rotate(21.0645 78.2454 205.603)" fill="#C1E5C0"/>
<ellipse cx="87.508" cy="209.17" rx="3.10183" ry="3.47873" transform="rotate(21.0645 87.508 209.17)" fill="#C1E5C0"/>
<ellipse cx="127.7" cy="130.709" rx="3.10183" ry="3.47873" transform="rotate(21.0645 127.7 130.709)" fill="#C1E5C0"/>
<ellipse cx="136.963" cy="134.277" rx="3.10183" ry="3.47873" transform="rotate(21.0645 136.963 134.277)" fill="#C1E5C0"/>
<ellipse cx="146.225" cy="137.844" rx="3.10183" ry="3.47873" transform="rotate(21.0645 146.225 137.844)" fill="#C1E5C0"/>
<ellipse cx="155.488" cy="141.412" rx="3.10183" ry="3.47873" transform="rotate(21.0645 155.488 141.412)" fill="#C1E5C0"/>
<ellipse cx="164.75" cy="144.98" rx="3.10183" ry="3.47873" transform="rotate(21.0645 164.75 144.98)" fill="#C1E5C0"/>
<ellipse cx="174.013" cy="148.547" rx="3.10183" ry="3.47873" transform="rotate(21.0645 174.013 148.547)" fill="#C1E5C0"/>
<ellipse cx="183.276" cy="152.115" rx="3.10183" ry="3.47873" transform="rotate(21.0645 183.276 152.115)" fill="#C1E5C0"/>
<ellipse cx="192.538" cy="155.682" rx="3.10183" ry="3.47873" transform="rotate(21.0645 192.538 155.682)" fill="#C1E5C0"/>
<ellipse cx="201.801" cy="159.25" rx="3.10183" ry="3.47873" transform="rotate(21.0645 201.801 159.25)" fill="#C1E5C0"/>
<ellipse cx="211.063" cy="162.817" rx="3.10183" ry="3.47873" transform="rotate(21.0645 211.063 162.817)" fill="#C1E5C0"/>
<ellipse cx="124.199" cy="139.799" rx="3.10183" ry="3.47873" transform="rotate(21.0645 124.199 139.799)" fill="#C1E5C0"/>
<ellipse cx="133.462" cy="143.367" rx="3.10183" ry="3.47873" transform="rotate(21.0645 133.462 143.367)" fill="#C1E5C0"/>
<ellipse cx="142.724" cy="146.934" rx="3.10183" ry="3.47873" transform="rotate(21.0645 142.724 146.934)" fill="#C1E5C0"/>
<ellipse cx="151.987" cy="150.502" rx="3.10183" ry="3.47873" transform="rotate(21.0645 151.987 150.502)" fill="#C1E5C0"/>
<ellipse cx="161.25" cy="154.069" rx="3.10183" ry="3.47873" transform="rotate(21.0645 161.25 154.069)" fill="#C1E5C0"/>
<ellipse cx="170.512" cy="157.637" rx="3.10183" ry="3.47873" transform="rotate(21.0645 170.512 157.637)" fill="#C1E5C0"/>
<ellipse cx="179.775" cy="161.204" rx="3.10183" ry="3.47873" transform="rotate(21.0645 179.775 161.204)" fill="#C1E5C0"/>
<ellipse cx="189.037" cy="164.772" rx="3.10183" ry="3.47873" transform="rotate(21.0645 189.037 164.772)" fill="#C1E5C0"/>
<ellipse cx="198.3" cy="168.339" rx="3.10183" ry="3.47873" transform="rotate(21.0645 198.3 168.339)" fill="#C1E5C0"/>
<ellipse cx="207.562" cy="171.907" rx="3.10183" ry="3.47873" transform="rotate(21.0645 207.562 171.907)" fill="#C1E5C0"/>
<ellipse cx="120.698" cy="148.888" rx="3.10183" ry="3.47873" transform="rotate(21.0645 120.698 148.888)" fill="#C1E5C0"/>
<ellipse cx="129.961" cy="152.456" rx="3.10183" ry="3.47873" transform="rotate(21.0645 129.961 152.456)" fill="#C1E5C0"/>
<ellipse cx="139.223" cy="156.023" rx="3.10183" ry="3.47873" transform="rotate(21.0645 139.223 156.023)" fill="#C1E5C0"/>
<ellipse cx="148.486" cy="159.591" rx="3.10183" ry="3.47873" transform="rotate(21.0645 148.486 159.591)" fill="#C1E5C0"/>
<ellipse cx="157.749" cy="163.159" rx="3.10183" ry="3.47873" transform="rotate(21.0645 157.749 163.159)" fill="#C1E5C0"/>
<ellipse cx="167.011" cy="166.726" rx="3.10183" ry="3.47873" transform="rotate(21.0645 167.011 166.726)" fill="#C1E5C0"/>
<ellipse cx="176.274" cy="170.294" rx="3.10183" ry="3.47873" transform="rotate(21.0645 176.274 170.294)" fill="#C1E5C0"/>
<ellipse cx="185.536" cy="173.861" rx="3.10183" ry="3.47873" transform="rotate(21.0645 185.536 173.861)" fill="#C1E5C0"/>
<ellipse cx="194.799" cy="177.429" rx="3.10183" ry="3.47873" transform="rotate(21.0645 194.799 177.429)" fill="#C1E5C0"/>
<ellipse cx="204.061" cy="180.996" rx="3.10183" ry="3.47873" transform="rotate(21.0645 204.061 180.996)" fill="#C1E5C0"/>
<ellipse cx="117.197" cy="157.978" rx="3.10183" ry="3.47873" transform="rotate(21.0645 117.197 157.978)" fill="#C1E5C0"/>
<ellipse cx="126.46" cy="161.545" rx="3.10183" ry="3.47873" transform="rotate(21.0645 126.46 161.545)" fill="#C1E5C0"/>
<ellipse cx="135.723" cy="165.113" rx="3.10183" ry="3.47873" transform="rotate(21.0645 135.723 165.113)" fill="#C1E5C0"/>
<ellipse cx="144.985" cy="168.681" rx="3.10183" ry="3.47873" transform="rotate(21.0645 144.985 168.681)" fill="#C1E5C0"/>
<ellipse cx="154.248" cy="172.248" rx="3.10183" ry="3.47873" transform="rotate(21.0645 154.248 172.248)" fill="#C1E5C0"/>
<ellipse cx="163.51" cy="175.816" rx="3.10183" ry="3.47873" transform="rotate(21.0645 163.51 175.816)" fill="#C1E5C0"/>
<ellipse cx="172.773" cy="179.383" rx="3.10183" ry="3.47873" transform="rotate(21.0645 172.773 179.383)" fill="#C1E5C0"/>
<ellipse cx="182.036" cy="182.951" rx="3.10183" ry="3.47873" transform="rotate(21.0645 182.036 182.951)" fill="#C1E5C0"/>
<ellipse cx="191.298" cy="186.518" rx="3.10183" ry="3.47873" transform="rotate(21.0645 191.298 186.518)" fill="#C1E5C0"/>
<ellipse cx="200.561" cy="190.086" rx="3.10183" ry="3.47873" transform="rotate(21.0645 200.561 190.086)" fill="#C1E5C0"/>
<ellipse cx="113.696" cy="167.067" rx="3.10183" ry="3.47873" transform="rotate(21.0645 113.696 167.067)" fill="#C1E5C0"/>
<ellipse cx="122.959" cy="170.635" rx="3.10183" ry="3.47873" transform="rotate(21.0645 122.959 170.635)" fill="#C1E5C0"/>
<ellipse cx="132.222" cy="174.203" rx="3.10183" ry="3.47873" transform="rotate(21.0645 132.222 174.203)" fill="#C1E5C0"/>
<ellipse cx="141.484" cy="177.77" rx="3.10183" ry="3.47873" transform="rotate(21.0645 141.484 177.77)" fill="#C1E5C0"/>
<ellipse cx="150.747" cy="181.338" rx="3.10183" ry="3.47873" transform="rotate(21.0645 150.747 181.338)" fill="#C1E5C0"/>
<ellipse cx="160.009" cy="184.905" rx="3.10183" ry="3.47873" transform="rotate(21.0645 160.009 184.905)" fill="#C1E5C0"/>
<ellipse cx="169.272" cy="188.473" rx="3.10183" ry="3.47873" transform="rotate(21.0645 169.272 188.473)" fill="#C1E5C0"/>
<ellipse cx="178.534" cy="192.04" rx="3.10183" ry="3.47873" transform="rotate(21.0645 178.534 192.04)" fill="#C1E5C0"/>
<ellipse cx="187.797" cy="195.608" rx="3.10183" ry="3.47873" transform="rotate(21.0645 187.797 195.608)" fill="#C1E5C0"/>
<ellipse cx="197.06" cy="199.175" rx="3.10183" ry="3.47873" transform="rotate(21.0645 197.06 199.175)" fill="#C1E5C0"/>
<ellipse cx="110.196" cy="176.157" rx="3.10183" ry="3.47873" transform="rotate(21.0645 110.196 176.157)" fill="#C1E5C0"/>
<ellipse cx="119.458" cy="179.724" rx="3.10183" ry="3.47873" transform="rotate(21.0645 119.458 179.724)" fill="#C1E5C0"/>
<ellipse cx="128.721" cy="183.292" rx="3.10183" ry="3.47873" transform="rotate(21.0645 128.721 183.292)" fill="#C1E5C0"/>
<ellipse cx="137.983" cy="186.86" rx="3.10183" ry="3.47873" transform="rotate(21.0645 137.983 186.86)" fill="#C1E5C0"/>
<ellipse cx="147.246" cy="190.427" rx="3.10183" ry="3.47873" transform="rotate(21.0645 147.246 190.427)" fill="#C1E5C0"/>
<ellipse cx="156.508" cy="193.995" rx="3.10183" ry="3.47873" transform="rotate(21.0645 156.508 193.995)" fill="#C1E5C0"/>
<ellipse cx="165.771" cy="197.562" rx="3.10183" ry="3.47873" transform="rotate(21.0645 165.771 197.562)" fill="#C1E5C0"/>
<ellipse cx="175.034" cy="201.13" rx="3.10183" ry="3.47873" transform="rotate(21.0645 175.034 201.13)" fill="#C1E5C0"/>
<ellipse cx="184.296" cy="204.697" rx="3.10183" ry="3.47873" transform="rotate(21.0645 184.296 204.697)" fill="#C1E5C0"/>
<ellipse cx="193.559" cy="208.265" rx="3.10183" ry="3.47873" transform="rotate(21.0645 193.559 208.265)" fill="#C1E5C0"/>
<ellipse cx="106.695" cy="185.247" rx="3.10183" ry="3.47873" transform="rotate(21.0645 106.695 185.247)" fill="#C1E5C0"/>
<ellipse cx="115.957" cy="188.814" rx="3.10183" ry="3.47873" transform="rotate(21.0645 115.957 188.814)" fill="#C1E5C0"/>
<ellipse cx="125.22" cy="192.382" rx="3.10183" ry="3.47873" transform="rotate(21.0645 125.22 192.382)" fill="#C1E5C0"/>
<ellipse cx="134.482" cy="195.949" rx="3.10183" ry="3.47873" transform="rotate(21.0645 134.482 195.949)" fill="#C1E5C0"/>
<ellipse cx="143.745" cy="199.517" rx="3.10183" ry="3.47873" transform="rotate(21.0645 143.745 199.517)" fill="#C1E5C0"/>
<ellipse cx="153.008" cy="203.084" rx="3.10183" ry="3.47873" transform="rotate(21.0645 153.008 203.084)" fill="#C1E5C0"/>
<ellipse cx="162.27" cy="206.652" rx="3.10183" ry="3.47873" transform="rotate(21.0645 162.27 206.652)" fill="#C1E5C0"/>
<ellipse cx="171.533" cy="210.22" rx="3.10183" ry="3.47873" transform="rotate(21.0645 171.533 210.22)" fill="#C1E5C0"/>
<ellipse cx="180.795" cy="213.787" rx="3.10183" ry="3.47873" transform="rotate(21.0645 180.795 213.787)" fill="#C1E5C0"/>
<ellipse cx="190.058" cy="217.355" rx="3.10183" ry="3.47873" transform="rotate(21.0645 190.058 217.355)" fill="#C1E5C0"/>
<ellipse cx="103.194" cy="194.336" rx="3.10183" ry="3.47873" transform="rotate(21.0645 103.194 194.336)" fill="#C1E5C0"/>
<ellipse cx="112.456" cy="197.904" rx="3.10183" ry="3.47873" transform="rotate(21.0645 112.456 197.904)" fill="#C1E5C0"/>
<ellipse cx="121.719" cy="201.471" rx="3.10183" ry="3.47873" transform="rotate(21.0645 121.719 201.471)" fill="#C1E5C0"/>
<ellipse cx="130.981" cy="205.039" rx="3.10183" ry="3.47873" transform="rotate(21.0645 130.981 205.039)" fill="#C1E5C0"/>
<ellipse cx="140.244" cy="208.606" rx="3.10183" ry="3.47873" transform="rotate(21.0645 140.244 208.606)" fill="#C1E5C0"/>
<ellipse cx="149.507" cy="212.174" rx="3.10183" ry="3.47873" transform="rotate(21.0645 149.507 212.174)" fill="#C1E5C0"/>
<ellipse cx="158.769" cy="215.742" rx="3.10183" ry="3.47873" transform="rotate(21.0645 158.769 215.742)" fill="#C1E5C0"/>
<ellipse cx="168.032" cy="219.309" rx="3.10183" ry="3.47873" transform="rotate(21.0645 168.032 219.309)" fill="#C1E5C0"/>
<ellipse cx="177.294" cy="222.877" rx="3.10183" ry="3.47873" transform="rotate(21.0645 177.294 222.877)" fill="#C1E5C0"/>
<ellipse cx="186.557" cy="226.444" rx="3.10183" ry="3.47873" transform="rotate(21.0645 186.557 226.444)" fill="#C1E5C0"/>
<ellipse cx="99.6929" cy="203.426" rx="3.10183" ry="3.47873" transform="rotate(21.0645 99.6929 203.426)" fill="#C1E5C0"/>
<ellipse cx="108.955" cy="206.993" rx="3.10183" ry="3.47873" transform="rotate(21.0645 108.955 206.993)" fill="#C1E5C0"/>
<ellipse cx="118.218" cy="210.561" rx="3.10183" ry="3.47873" transform="rotate(21.0645 118.218 210.561)" fill="#C1E5C0"/>
<ellipse cx="127.48" cy="214.128" rx="3.10183" ry="3.47873" transform="rotate(21.0645 127.48 214.128)" fill="#C1E5C0"/>
<ellipse cx="136.743" cy="217.696" rx="3.10183" ry="3.47873" transform="rotate(21.0645 136.743 217.696)" fill="#C1E5C0"/>
<ellipse cx="146.006" cy="221.263" rx="3.10183" ry="3.47873" transform="rotate(21.0645 146.006 221.263)" fill="#C1E5C0"/>
<ellipse cx="155.268" cy="224.831" rx="3.10183" ry="3.47873" transform="rotate(21.0645 155.268 224.831)" fill="#C1E5C0"/>
<ellipse cx="164.531" cy="228.398" rx="3.10183" ry="3.47873" transform="rotate(21.0645 164.531 228.398)" fill="#C1E5C0"/>
<ellipse cx="173.793" cy="231.966" rx="3.10183" ry="3.47873" transform="rotate(21.0645 173.793 231.966)" fill="#C1E5C0"/>
<ellipse cx="183.056" cy="235.534" rx="3.10183" ry="3.47873" transform="rotate(21.0645 183.056 235.534)" fill="#C1E5C0"/>
<ellipse cx="96.192" cy="212.515" rx="3.10183" ry="3.47873" transform="rotate(21.0645 96.192 212.515)" fill="#C1E5C0"/>
<ellipse cx="105.455" cy="216.083" rx="3.10183" ry="3.47873" transform="rotate(21.0645 105.455 216.083)" fill="#C1E5C0"/>
<ellipse cx="114.717" cy="219.65" rx="3.10183" ry="3.47873" transform="rotate(21.0645 114.717 219.65)" fill="#C1E5C0"/>
<ellipse cx="123.98" cy="223.218" rx="3.10183" ry="3.47873" transform="rotate(21.0645 123.98 223.218)" fill="#C1E5C0"/>
<ellipse cx="133.242" cy="226.785" rx="3.10183" ry="3.47873" transform="rotate(21.0645 133.242 226.785)" fill="#C1E5C0"/>
<ellipse cx="142.505" cy="230.353" rx="3.10183" ry="3.47873" transform="rotate(21.0645 142.505 230.353)" fill="#C1E5C0"/>
<ellipse cx="151.767" cy="233.92" rx="3.10183" ry="3.47873" transform="rotate(21.0645 151.767 233.92)" fill="#C1E5C0"/>
<ellipse cx="161.03" cy="237.488" rx="3.10183" ry="3.47873" transform="rotate(21.0645 161.03 237.488)" fill="#C1E5C0"/>
<ellipse cx="170.293" cy="241.055" rx="3.10183" ry="3.47873" transform="rotate(21.0645 170.293 241.055)" fill="#C1E5C0"/>
<ellipse cx="179.555" cy="244.623" rx="3.10183" ry="3.47873" transform="rotate(21.0645 179.555 244.623)" fill="#C1E5C0"/>
</svg>
