<svg width="1315" height="339" viewBox="0 0 1315 339" fill="none" xmlns="http://www.w3.org/2000/svg">
<path d="M2.12225 336.726L1312.63 336.898" stroke="#AFACAC" stroke-width="3" stroke-linecap="round" stroke-linejoin="round"/>
<path d="M248.341 143.996V334.313C248.341 335.454 247.24 336.381 245.885 336.381H160.742C159.386 336.381 158.286 335.454 158.286 334.313V143.996C158.286 142.854 159.386 141.927 160.742 141.927H245.885C247.24 141.927 248.341 142.854 248.341 143.996Z" stroke="#AFACAC" stroke-width="3" stroke-linecap="round" stroke-linejoin="round"/>
<path d="M227.874 127.964V141.755H179.571V127.964H227.874Z" stroke="#AFACAC" stroke-width="3"/>
<path d="M204.541 57.4573V127.102" stroke="#AFACAC" stroke-width="3"/>
<path d="M197.378 57.6296H211.909" stroke="#AFACAC" stroke-width="3"/>
<path d="M159.104 302.938H249.364" stroke="#AFACAC" stroke-width="3"/>
<path d="M159.104 257.897H249.364" stroke="#AFACAC" stroke-width="2.54763"/>
<path d="M158.695 213.766H248.955" stroke="#AFACAC" stroke-width="2.54763"/>
<path d="M158.695 191.356H248.955" stroke="#AFACAC" stroke-width="2.54763"/>
<path d="M159.104 246.175H249.364" stroke="#AFACAC" stroke-width="2.54763"/>
<path d="M158.695 202.044H248.955" stroke="#AFACAC" stroke-width="2.54763"/>
<path d="M158.695 179.633H248.955" stroke="#AFACAC" stroke-width="2.54763"/>
<path d="M159.104 314.006H249.364" stroke="#AFACAC" stroke-width="3.10108"/>
<path d="M159.104 268.965H249.364" stroke="#AFACAC" stroke-width="2.66592"/>
<path d="M158.695 224.834H248.955" stroke="#AFACAC" stroke-width="2.66592"/>
<path d="M159.104 324.728H249.364" stroke="#AFACAC" stroke-width="3.19595"/>
<path d="M159.104 279.689H249.364" stroke="#AFACAC" stroke-width="2.77572"/>
<path d="M98.829 292.595C108.826 292.595 116.942 299.431 116.942 307.851C116.942 316.271 108.826 323.107 98.829 323.107C88.8322 323.107 80.7157 316.271 80.7157 307.851C80.7157 299.431 88.8322 292.595 98.829 292.595Z" stroke="#AFACAC" stroke-width="3"/>
<path d="M99.5453 336.554V315.695V302.421" stroke="#AFACAC" stroke-width="3"/>
<path d="M105.685 311.557L100.159 315.178" stroke="#AFACAC" stroke-width="3"/>
<path d="M99.2383 310.782L94.0192 306.386" stroke="#AFACAC" stroke-width="3"/>
<path d="M311.891 264.323C328.1 264.323 341.261 275.408 341.261 289.061C341.261 302.713 328.1 313.798 311.891 313.798C295.681 313.798 282.521 302.713 282.521 289.061C282.521 275.408 295.681 264.323 311.891 264.323Z" stroke="#AFACAC" stroke-width="3"/>
<path d="M312.402 279.666V336.726" stroke="#AFACAC" stroke-width="3"/>
<path d="M313.426 302.248L322.841 294.319" stroke="#AFACAC" stroke-width="3"/>
<path d="M312.198 295.008L303.397 287.595" stroke="#AFACAC" stroke-width="3"/>
<path d="M384.344 295.612L346.685 313.971V318.022L383.628 299.921L420.878 317.763L420.98 313.54L384.344 295.612Z" stroke="#AFACAC" stroke-width="3" stroke-linecap="round" stroke-linejoin="round"/>
<path d="M414.84 314.833L353.03 315.178V336.64H414.84V314.833Z" stroke="#AFACAC" stroke-width="3"/>
<path d="M353.746 319.918H378.306" stroke="#AFACAC" stroke-width="3"/>
<path d="M414.124 319.66H389.563" stroke="#AFACAC" stroke-width="3"/>
<path d="M353.951 325.262H368.482" stroke="#AFACAC" stroke-width="3"/>
<path d="M414.226 325.09H399.285" stroke="#AFACAC" stroke-width="3"/>
<path d="M354.053 330.52H377.692" stroke="#AFACAC" stroke-width="3"/>
<path d="M414.124 330.52H389.87" stroke="#AFACAC" stroke-width="3"/>
<path d="M389.973 335.95V325.348H377.795V335.778" stroke="#AFACAC" stroke-width="3"/>
<path d="M398.671 301.387V297.335H404.504V304.662" stroke="#AFACAC" stroke-width="3"/>
<path d="M384.344 305.265C386.151 305.265 387.619 306.501 387.619 308.024C387.619 309.546 386.151 310.782 384.344 310.782C382.537 310.782 381.069 309.546 381.069 308.024C381.069 306.501 382.537 305.265 384.344 305.265Z" stroke="#AFACAC" stroke-width="3"/>
<path d="M534.47 265.444C534.47 266.633 533.323 267.599 531.911 267.599H471.329C469.917 267.599 468.771 266.633 468.771 265.444C468.771 264.254 469.917 263.289 471.329 263.289H531.911C533.323 263.289 534.47 264.254 534.47 265.444Z" stroke="#AFACAC" stroke-width="3"/>
<path d="M534.47 247.17C534.47 248.36 533.323 249.325 531.911 249.325H471.329C469.917 249.325 468.771 248.36 468.771 247.17C468.771 245.981 469.917 245.016 471.329 245.016H531.911C533.323 245.016 534.47 245.981 534.47 247.17Z" stroke="#AFACAC" stroke-width="3"/>
<path d="M534.47 301.128C534.47 302.317 533.323 303.283 531.911 303.283H471.329C469.917 303.283 468.771 302.317 468.771 301.128C468.771 299.939 469.917 298.973 471.329 298.973H531.911C533.323 298.973 534.47 299.939 534.47 301.128Z" stroke="#AFACAC" stroke-width="3"/>
<path d="M534.47 284.234C534.47 285.423 533.323 286.389 531.911 286.389H471.329C469.917 286.389 468.771 285.423 468.771 284.234C468.771 283.045 469.917 282.079 471.329 282.079H531.911C533.323 282.079 534.47 283.045 534.47 284.234Z" stroke="#AFACAC" stroke-width="3"/>
<path d="M534.47 319.918C534.47 321.108 533.323 322.073 531.911 322.073H471.329C469.917 322.073 468.771 321.108 468.771 319.918C468.771 318.729 469.917 317.763 471.329 317.763H531.911C533.323 317.763 534.47 318.729 534.47 319.918Z" stroke="#AFACAC" stroke-width="3"/>
<path d="M471.227 322.246V335.692" stroke="#AFACAC" stroke-width="3"/>
<path d="M471.227 286.216V299.663" stroke="#AFACAC" stroke-width="3"/>
<path d="M471.227 303.972V317.419" stroke="#AFACAC" stroke-width="3"/>
<path d="M471.227 267.943V281.39" stroke="#AFACAC" stroke-width="3"/>
<path d="M471.227 250.187V263.634" stroke="#AFACAC" stroke-width="3"/>
<path d="M532.628 322.246V335.692" stroke="#AFACAC" stroke-width="3"/>
<path d="M532.628 286.216V299.663" stroke="#AFACAC" stroke-width="3"/>
<path d="M516.049 286.044V299.49" stroke="#AFACAC" stroke-width="3"/>
<path d="M487.805 286.044V299.49" stroke="#AFACAC" stroke-width="3"/>
<path d="M532.628 303.972V317.419" stroke="#AFACAC" stroke-width="3"/>
<path d="M516.049 303.8V317.246" stroke="#AFACAC" stroke-width="3"/>
<path d="M487.805 303.8V317.246" stroke="#AFACAC" stroke-width="3"/>
<path d="M532.628 267.943V281.39" stroke="#AFACAC" stroke-width="3"/>
<path d="M516.049 267.771V281.217" stroke="#AFACAC" stroke-width="3"/>
<path d="M487.805 267.771V281.217" stroke="#AFACAC" stroke-width="3"/>
<path d="M532.628 250.187V263.634" stroke="#AFACAC" stroke-width="3"/>
<path d="M516.049 250.015V263.461" stroke="#AFACAC" stroke-width="3"/>
<path d="M487.805 250.015V263.461" stroke="#AFACAC" stroke-width="3"/>
<path d="M470.408 244.843V241.74H533.651V245.016" stroke="#AFACAC" stroke-width="3"/>
<path d="M498.857 240.534V238.465H520.962V241.051" stroke="#AFACAC" stroke-width="3"/>
<path d="M487.703 335.95V326.469H515.845V336.554" stroke="#AFACAC" stroke-width="3"/>
<path d="M501.416 326.728V336.036" stroke="#AFACAC" stroke-width="3"/>
<path d="M588.912 283.286C595.577 283.286 600.988 291.474 600.988 301.559C600.988 311.644 595.577 319.832 588.912 319.832C582.248 319.832 576.837 311.644 576.837 301.559C576.837 291.638 582.073 283.553 588.587 283.292" stroke="#AFACAC" stroke-width="3"/>
<path d="M587.889 336.726C587.889 336.726 587.889 299.722 587.889 297.366" stroke="#AFACAC" stroke-width="3"/>
<path d="M596.28 309.144L588.196 315.005C588.196 315.005 595.564 309.663 596.232 309.179" stroke="#AFACAC" stroke-width="3"/>
<path d="M587.275 309.23C587.275 309.23 581.615 304.706 581.255 304.418" stroke="#AFACAC" stroke-width="3"/>
<path d="M688.996 275.184V278.976H619.817V275.184C619.817 275.184 632.884 275.184 647.661 275.184" stroke="#AFACAC" stroke-width="3"/>
<path d="M623.911 279.838C623.911 279.838 623.911 303.722 623.911 320.397" stroke="#AFACAC" stroke-width="3"/>
<path d="M684.288 280.01C684.288 280.01 684.288 303.968 684.288 320.693" stroke="#AFACAC" stroke-width="3"/>
<path d="M625.343 274.149L630.051 256.738C630.051 256.738 663.509 256.738 675.427 256.738" stroke="#AFACAC" stroke-width="3"/>
<path d="M634.349 256.393V251.221C634.349 251.221 642.848 251.221 645.585 251.221" stroke="#AFACAC" stroke-width="3"/>
<path d="M637.419 250.704V247.601H643.15" stroke="#AFACAC" stroke-width="3"/>
<path d="M635.475 261.651C635.475 261.651 638.336 261.651 640.334 261.651" stroke="#AFACAC" stroke-width="3"/>
<path d="M657.988 261.048C657.988 261.048 661.934 261.048 664.688 261.048" stroke="#AFACAC" stroke-width="3"/>
<path d="M676.204 261.22C676.204 261.22 677.938 261.22 679.15 261.22" stroke="#AFACAC" stroke-width="3"/>
<path d="M645.401 265.444C645.401 265.444 653.119 265.444 658.507 265.444" stroke="#AFACAC" stroke-width="3"/>
<path d="M626.571 269.408C626.571 269.408 628.696 269.408 630.179 269.408" stroke="#AFACAC" stroke-width="3"/>
<path d="M635.986 269.408C635.986 269.408 640.235 269.408 643.202 269.408" stroke="#AFACAC" stroke-width="3"/>
<path d="M661.468 269.322C661.468 269.322 667.321 269.322 671.408 269.322" stroke="#AFACAC" stroke-width="3"/>
<path d="M631.688 302.852V287.768H648.062C648.062 287.768 648.062 288.972 648.062 290.707" stroke="#AFACAC" stroke-width="3" stroke-linecap="round"/>
<path d="M628.823 303.714C628.823 303.714 638.275 303.714 644.874 303.714" stroke="#AFACAC" stroke-width="3" stroke-linecap="round"/>
<path d="M659.523 302.852V287.768H675.897C675.897 287.768 675.897 288.972 675.897 290.707" stroke="#AFACAC" stroke-width="3" stroke-linecap="round"/>
<path d="M656.658 303.714C656.658 303.714 666.11 303.714 672.709 303.714" stroke="#AFACAC" stroke-width="3" stroke-linecap="round"/>
<path d="M659.523 330.434V315.35H675.897C675.897 315.35 675.897 316.554 675.897 318.289" stroke="#AFACAC" stroke-width="3" stroke-linecap="round"/>
<path d="M656.658 331.296C656.658 331.296 666.11 331.296 672.709 331.296" stroke="#AFACAC" stroke-width="3" stroke-linecap="round"/>
<path d="M630.87 330.434V315.35H647.243C647.243 315.35 647.243 316.554 647.243 318.289" stroke="#AFACAC" stroke-width="3" stroke-linecap="round"/>
<path d="M628.004 331.296C628.004 331.296 637.457 331.296 644.055 331.296" stroke="#AFACAC" stroke-width="3" stroke-linecap="round"/>
<path d="M696.262 330.434V315.35H712.635C712.635 315.35 712.635 316.554 712.635 318.289" stroke="#AFACAC" stroke-width="3" stroke-linecap="round"/>
<path d="M693.396 331.296C693.396 331.296 702.849 331.296 709.447 331.296" stroke="#AFACAC" stroke-width="3" stroke-linecap="round"/>
<path d="M685.005 296.215C685.005 296.215 703.779 302.496 716.887 306.882" stroke="#AFACAC" stroke-width="3"/>
<path d="M685.312 291.733L723.995 305.61C723.995 305.61 723.995 311.479 723.995 318.126" stroke="#AFACAC" stroke-width="3"/>
<path d="M780.586 301.817C788.436 301.817 794.81 307.186 794.81 313.798C794.81 314.911 794.63 315.988 794.292 317.011" stroke="#AFACAC" stroke-width="3"/>
<path d="M781.814 336.122C781.814 336.122 781.814 332.68 781.814 328.263" stroke="#AFACAC" stroke-width="3"/>
<path d="M782.428 320.263C782.428 320.263 783.045 319.754 783.838 319.1" stroke="#AFACAC" stroke-width="3"/>
<path d="M776.902 312.247C776.902 312.247 778.303 313.427 779.542 314.471" stroke="#AFACAC" stroke-width="3"/>
<path d="M826.841 270.184C828.545 270.184 830.19 270.549 831.736 271.226" stroke="#AFACAC" stroke-width="3"/>
<path d="M903.388 209.417C903.619 209.417 903.843 209.44 904.059 209.482" stroke="#AFACAC" stroke-width="3"/>
<path d="M892.95 214.589C892.95 214.589 892.994 214.589 893.073 214.589" stroke="#AFACAC" stroke-width="3"/>
<path d="M909.938 214.589C909.938 214.589 909.982 214.589 910.061 214.589" stroke="#AFACAC" stroke-width="3"/>
<path d="M892.95 217.434C892.95 217.434 892.994 217.434 893.073 217.434" stroke="#AFACAC" stroke-width="3"/>
<path d="M909.938 217.434C909.938 217.434 909.982 217.434 910.061 217.434" stroke="#AFACAC" stroke-width="3"/>
<path d="M824.692 336.209C824.692 336.209 824.692 335.552 824.692 334.388" stroke="#AFACAC" stroke-width="3"/>
<path d="M825.204 309.144C825.204 309.144 825.361 309.06 825.639 308.912" stroke="#AFACAC" stroke-width="3"/>
<path d="M824.59 301.645C824.59 301.645 824.47 301.551 824.259 301.385" stroke="#AFACAC" stroke-width="3"/>
<g opacity="0.33">
<path d="M97.294 337.588V236.913C97.294 236.913 96.2731 232.378 102.922 232.518C111.109 232.69 112.951 213.469 112.951 213.469H118.17C118.17 213.469 116.738 205.711 127.176 205.711" stroke="#AFACAC" stroke-width="2"/>
<path d="M155.365 337.588V236.913C155.365 236.913 156.386 232.378 149.736 232.518C141.549 232.69 139.707 213.469 139.707 213.469H134.488C134.488 213.469 135.921 205.711 125.483 205.711" stroke="#AFACAC" stroke-width="2"/>
<path d="M101.387 235.793H109.574" stroke="#AFACAC" stroke-width="2"/>
<path d="M141.81 235.793H149.997" stroke="#AFACAC" stroke-width="2"/>
<path d="M101.387 238.982H109.574" stroke="#AFACAC" stroke-width="2"/>
<path d="M141.81 238.982H149.997" stroke="#AFACAC" stroke-width="2"/>
<path d="M120.012 240.361V228.725H132.293V240.189" stroke="#AFACAC" stroke-width="2" stroke-linecap="round"/>
<path d="M117.454 240.447H134.953" stroke="#AFACAC" stroke-width="2" stroke-linecap="round"/>
<path d="M104.15 260.186V248.55H114.896V260.013" stroke="#AFACAC" stroke-width="2" stroke-linecap="round"/>
<path d="M121.547 260.186V248.55H132.293V260.013" stroke="#AFACAC" stroke-width="2" stroke-linecap="round"/>
<path d="M102.104 260.272H116.533" stroke="#AFACAC" stroke-width="2" stroke-linecap="round"/>
<path d="M119.501 260.272H133.93" stroke="#AFACAC" stroke-width="2" stroke-linecap="round"/>
<path d="M138.74 260.186V248.55H149.485V260.013" stroke="#AFACAC" stroke-width="2" stroke-linecap="round"/>
<path d="M136.693 260.272H151.122" stroke="#AFACAC" stroke-width="2" stroke-linecap="round"/>
<path d="M138.74 286.044V267.857H149.485V285.872" stroke="#AFACAC" stroke-width="2" stroke-linecap="round"/>
<path d="M136.693 286.475H151.122" stroke="#AFACAC" stroke-width="2" stroke-linecap="round"/>
<path d="M121.138 286.044V267.857H131.883V285.872" stroke="#AFACAC" stroke-width="2" stroke-linecap="round"/>
<path d="M119.091 286.475H133.521" stroke="#AFACAC" stroke-width="2" stroke-linecap="round"/>
<path d="M103.639 286.044V267.857H114.384V285.872" stroke="#AFACAC" stroke-width="2" stroke-linecap="round"/>
<path d="M101.592 286.475H116.021" stroke="#AFACAC" stroke-width="2" stroke-linecap="round"/>
<path d="M103.639 310.868V292.681H114.384V310.695" stroke="#AFACAC" stroke-width="2" stroke-linecap="round"/>
<path d="M101.592 311.299H116.021" stroke="#AFACAC" stroke-width="2" stroke-linecap="round"/>
<path d="M120.831 310.868V292.681H131.576V310.695" stroke="#AFACAC" stroke-width="2" stroke-linecap="round"/>
<path d="M118.784 311.299H133.214" stroke="#AFACAC" stroke-width="2" stroke-linecap="round"/>
<path d="M138.433 310.868V292.681H149.178V310.695" stroke="#AFACAC" stroke-width="2" stroke-linecap="round"/>
<path d="M136.386 311.299H150.815" stroke="#AFACAC" stroke-width="2" stroke-linecap="round"/>
<path d="M131.474 320.004V333.882H120.012V320.004C120.012 317.339 122.578 315.177 125.743 315.177C128.908 315.177 131.474 317.339 131.474 320.004Z" stroke="#AFACAC" stroke-width="2"/>
<path d="M134.033 333.968V336.813H116.533V333.968H134.033Z" stroke="#AFACAC" stroke-width="2"/>
</g>
<g opacity="0.33">
<path d="M272.492 335.864H396.522" stroke="#AFACAC" stroke-width="3" stroke-linecap="round"/>
<path d="M278.837 335.519V182.783L334.507 159.339V335.692" stroke="#AFACAC" stroke-width="3" stroke-linecap="round"/>
<path d="M294.391 335.605V322.504H318.133V335.605" stroke="#AFACAC" stroke-width="3" stroke-linecap="round"/>
<path d="M325.706 173.819V329.313" stroke="#AFACAC" stroke-width="3" stroke-linecap="round" stroke-dasharray="16 10"/>
<path d="M301.76 192.092V316.212" stroke="#AFACAC" stroke-width="3" stroke-linecap="round" stroke-dasharray="16 10"/>
<path d="M318.031 173.819C318.031 173.819 318.031 268.518 318.031 316.47" stroke="#AFACAC" stroke-width="3" stroke-linecap="round" stroke-dasharray="16 10"/>
<path d="M294.084 192.092C294.084 192.092 294.084 274.494 294.084 316.384" stroke="#AFACAC" stroke-width="3" stroke-linecap="round" stroke-dasharray="16 10"/>
<path d="M309.742 173.819V192.265V316.557" stroke="#AFACAC" stroke-width="3" stroke-linecap="round" stroke-dasharray="16 10"/>
<path d="M285.795 192.265V329.313" stroke="#AFACAC" stroke-width="3" stroke-linecap="round" stroke-dasharray="16 10"/>
</g>
<path d="M617.157 335.261C615.212 329.83 609.584 330.434 608.56 330.951C608.356 327.158 600.578 324.745 596.69 329.572C595.052 326.296 586.763 325.521 585.023 330.261C584.205 326.641 580.111 322.849 572.743 324.745C567.909 325.989 567.012 330.779 567.012 330.779C567.012 330.779 565.098 325.299 557.7 326.383C552.992 327.072 552.685 330.865 552.481 331.985C551.969 330.003 542.869 329.055 544.088 335.942" stroke="#AFACAC" stroke-width="3" stroke-linecap="round"/>
<path d="M91.5632 334.818C89.6188 329.388 83.9904 329.991 82.9671 330.508C82.7624 326.716 74.9849 324.302 71.0962 329.129C69.4588 325.854 61.1697 325.078 59.43 329.819C58.6113 326.199 54.5179 322.406 47.1498 324.302C42.3154 325.546 41.419 330.336 41.419 330.336C41.419 330.336 39.5041 324.856 32.1065 325.94C27.3991 326.63 27.0921 330.422 26.8874 331.543C26.3757 329.56 17.2679 328.612 18.4959 335.508" stroke="#AFACAC" stroke-width="3" stroke-linecap="round"/>
<g opacity="0.33">
<path d="M444.824 242.43C453.409 242.43 460.379 259.579 460.379 280.7C460.379 301.821 453.409 318.97 444.824 318.97C436.239 318.97 429.269 301.821 429.269 280.7C429.269 259.579 436.239 242.43 444.824 242.43Z" stroke="#AFACAC" stroke-width="3" stroke-linecap="round"/>
<path d="M444.415 336.898V284.148" stroke="#AFACAC" stroke-width="3" stroke-linecap="round"/>
<path d="M445.234 307.075L449.736 301.473" stroke="#AFACAC" stroke-width="3" stroke-linecap="round"/>
<path d="M444.21 299.404L438.275 294.319" stroke="#AFACAC" stroke-width="3" stroke-linecap="round"/>
</g>
<path d="M155.752 19.6375C141.834 -8.97893 98.2396 2.1401 97.0115 21.7061C92.5088 18.517 82.2753 21.1028 83.9126 29.205C52.3934 24.8953 56.2821 50.9259 56.2821 50.9259H221.656C221.656 50.9259 220.428 39.8931 205.487 42.9099C209.785 35.411 198.733 29.7222 192.593 33.4285C192.593 23.5162 176.628 18.1722 167.52 25.9297C169.67 19.8961 160.664 15.5002 155.752 19.6375Z" stroke="#AFACAC" stroke-width="3" stroke-linecap="round"/>
<path d="M876.783 21.4895C849.561 -0.576137 821.112 17.1798 821.112 29.7642C820.089 25.4545 809.241 24.9373 807.604 29.7642C790.821 7.18133 762.576 17.5246 759.302 25.6268C748.659 18.5589 731.671 21.8343 729.215 34.2463C703.017 30.2813 703.222 51.8298 703.222 51.8298C703.222 51.8298 862.668 51.8298 948.938 51.8298" stroke="#AFACAC" stroke-width="3" stroke-linecap="round"/>
</svg>
