<svg width="951" height="869" viewBox="0 0 951 869" fill="none" xmlns="http://www.w3.org/2000/svg">
<path d="M968.12 320.058H776.581C776.581 320.058 795.572 268.186 824.8 268.186C854.028 268.186 863.183 303.99 863.183 303.99C863.183 303.99 882.903 284.537 899.101 284.537C915.299 284.537 929.385 310.243 929.385 310.243C929.385 310.243 952.274 296.42 968.12 320.058Z" fill="#ECECEC"/>
<path d="M928.139 116.903H838.627C838.627 116.903 858.628 87.925 874.386 87.925C890.144 87.925 894.801 107.244 894.801 107.244C894.801 107.244 905.922 98.228 916.225 99.838C926.529 101.448 928.139 116.903 928.139 116.903Z" fill="#ECECEC"/>
<path d="M415.903 249.014H241.551C241.551 249.014 265.427 195.71 290.969 192.378C316.511 189.046 328.726 231.986 328.726 231.986C328.726 231.986 345.2 216.809 358.156 216.809C371.112 216.809 381.106 236.799 381.106 236.799C381.106 236.799 407.019 223.102 415.903 249.014Z" fill="#ECECEC"/>
<path d="M387.886 49.873H270.108C270.108 49.873 290.339 11.253 312.287 10.69C334.235 10.127 345.772 39.918 345.772 39.918C345.772 39.918 379.913 12.52 387.886 49.873Z" fill="#ECECEC"/>
<path d="M314.809 316.591H235.313C235.313 316.591 248.969 290.524 263.783 290.144C278.597 289.764 286.384 309.872 286.384 309.872C286.384 309.872 309.428 291.379 314.809 316.591Z" fill="#ECECEC"/>
<path d="M294.714 338.223V857.573H193.566V338.223H294.714Z" fill="#ECECEC"/>
<path d="M294.715 327.883V338.224H191.134V327.883H294.715Z" fill="#C8C8C8"/>
<path d="M212.959 353.467V857.573H202.711V353.467H212.959Z" fill="white"/>
<path d="M231.112 353.467V857.573H220.864V353.467H231.112Z" fill="white"/>
<path d="M249.264 353.467V857.573H239.016V353.467H249.264Z" fill="white"/>
<path d="M267.417 353.467V857.573H257.169V353.467H267.417Z" fill="white"/>
<path d="M285.569 353.467V857.573H275.321V353.467H285.569Z" fill="white"/>
<path d="M212.959 366.534V386.949H202.711V366.534H212.959Z" fill="#ECECEC"/>
<path d="M231.112 366.534V386.949H220.864V366.534H231.112Z" fill="#ECECEC"/>
<path d="M249.264 366.534V386.949H239.016V366.534H249.264Z" fill="#ECECEC"/>
<path d="M267.417 366.534V386.949H257.169V366.534H267.417Z" fill="#ECECEC"/>
<path d="M285.569 366.534V386.949H275.321V366.534H285.569Z" fill="#ECECEC"/>
<path d="M212.959 399.713V420.128H202.711V399.713H212.959Z" fill="#ECECEC"/>
<path d="M231.112 399.713V420.128H220.864V399.713H231.112Z" fill="#ECECEC"/>
<path d="M249.264 399.713V420.128H239.016V399.713H249.264Z" fill="#ECECEC"/>
<path d="M267.417 399.713V420.128H257.169V399.713H267.417Z" fill="#ECECEC"/>
<path d="M285.569 399.713V420.128H275.321V399.713H285.569Z" fill="#ECECEC"/>
<path d="M212.959 432.892V453.307H202.711V432.892H212.959Z" fill="#ECECEC"/>
<path d="M231.112 432.892V453.307H220.864V432.892H231.112Z" fill="#ECECEC"/>
<path d="M249.264 432.892V453.307H239.016V432.892H249.264Z" fill="#ECECEC"/>
<path d="M267.417 432.892V453.307H257.169V432.892H267.417Z" fill="#ECECEC"/>
<path d="M285.569 432.892V453.307H275.321V432.892H285.569Z" fill="#ECECEC"/>
<path d="M212.959 466.071V486.486H202.711V466.071H212.959Z" fill="#ECECEC"/>
<path d="M231.112 466.071V486.486H220.864V466.071H231.112Z" fill="#ECECEC"/>
<path d="M249.264 466.071V486.486H239.016V466.071H249.264Z" fill="#ECECEC"/>
<path d="M267.417 466.071V486.486H257.169V466.071H267.417Z" fill="#ECECEC"/>
<path d="M285.569 466.071V486.486H275.321V466.071H285.569Z" fill="#ECECEC"/>
<path d="M212.959 499.25V519.665H202.711V499.25H212.959Z" fill="#ECECEC"/>
<path d="M231.112 499.25V519.665H220.864V499.25H231.112Z" fill="#ECECEC"/>
<path d="M249.264 499.25V519.665H239.016V499.25H249.264Z" fill="#ECECEC"/>
<path d="M267.417 499.25V519.665H257.169V499.25H267.417Z" fill="#ECECEC"/>
<path d="M285.569 499.25V519.665H275.321V499.25H285.569Z" fill="#ECECEC"/>
<path d="M212.959 532.428V552.843H202.711V532.428H212.959Z" fill="#ECECEC"/>
<path d="M231.112 532.428V552.843H220.864V532.428H231.112Z" fill="#ECECEC"/>
<path d="M249.264 532.428V552.843H239.016V532.428H249.264Z" fill="#ECECEC"/>
<path d="M267.417 532.428V552.843H257.169V532.428H267.417Z" fill="#ECECEC"/>
<path d="M285.569 532.428V552.843H275.321V532.428H285.569Z" fill="#ECECEC"/>
<path d="M212.959 565.608V586.023H202.711V565.608H212.959Z" fill="#ECECEC"/>
<path d="M231.112 565.608V586.023H220.864V565.608H231.112Z" fill="#ECECEC"/>
<path d="M249.264 565.608V586.023H239.016V565.608H249.264Z" fill="#ECECEC"/>
<path d="M267.417 565.608V586.023H257.169V565.608H267.417Z" fill="#ECECEC"/>
<path d="M285.569 565.608V586.023H275.321V565.608H285.569Z" fill="#ECECEC"/>
<path d="M212.959 598.788V619.203H202.711V598.788H212.959Z" fill="#ECECEC"/>
<path d="M231.112 598.788V619.203H220.864V598.788H231.112Z" fill="#ECECEC"/>
<path d="M249.264 598.788V619.203H239.016V598.788H249.264Z" fill="#ECECEC"/>
<path d="M267.417 598.788V619.203H257.169V598.788H267.417Z" fill="#ECECEC"/>
<path d="M285.569 598.788V619.203H275.321V598.788H285.569Z" fill="#ECECEC"/>
<path d="M212.959 631.966V652.381H202.711V631.966H212.959Z" fill="#ECECEC"/>
<path d="M231.112 631.966V652.381H220.864V631.966H231.112Z" fill="#ECECEC"/>
<path d="M249.264 631.966V652.381H239.016V631.966H249.264Z" fill="#ECECEC"/>
<path d="M267.417 631.966V652.381H257.169V631.966H267.417Z" fill="#ECECEC"/>
<path d="M285.569 631.966V652.381H275.321V631.966H285.569Z" fill="#ECECEC"/>
<path d="M212.959 665.145V685.56H202.711V665.145H212.959Z" fill="#ECECEC"/>
<path d="M231.112 665.145V685.56H220.864V665.145H231.112Z" fill="#ECECEC"/>
<path d="M249.264 665.145V685.56H239.016V665.145H249.264Z" fill="#ECECEC"/>
<path d="M267.417 665.145V685.56H257.169V665.145H267.417Z" fill="#ECECEC"/>
<path d="M285.569 665.145V685.56H275.321V665.145H285.569Z" fill="#ECECEC"/>
<path d="M212.959 698.325V718.74H202.711V698.325H212.959Z" fill="#ECECEC"/>
<path d="M231.112 698.325V718.74H220.864V698.325H231.112Z" fill="#ECECEC"/>
<path d="M249.264 698.325V718.74H239.016V698.325H249.264Z" fill="#ECECEC"/>
<path d="M267.417 698.325V718.74H257.169V698.325H267.417Z" fill="#ECECEC"/>
<path d="M285.569 698.325V718.74H275.321V698.325H285.569Z" fill="#ECECEC"/>
<path d="M212.959 731.504V751.919H202.711V731.504H212.959Z" fill="#ECECEC"/>
<path d="M231.112 731.504V751.919H220.864V731.504H231.112Z" fill="#ECECEC"/>
<path d="M249.264 731.504V751.919H239.016V731.504H249.264Z" fill="#ECECEC"/>
<path d="M267.417 731.504V751.919H257.169V731.504H267.417Z" fill="#ECECEC"/>
<path d="M285.569 731.504V751.919H275.321V731.504H285.569Z" fill="#ECECEC"/>
<path d="M212.959 764.683V785.098H202.711V764.683H212.959Z" fill="#ECECEC"/>
<path d="M231.112 764.683V785.098H220.864V764.683H231.112Z" fill="#ECECEC"/>
<path d="M249.264 764.683V785.098H239.016V764.683H249.264Z" fill="#ECECEC"/>
<path d="M267.417 764.683V785.098H257.169V764.683H267.417Z" fill="#ECECEC"/>
<path d="M285.569 764.683V785.098H275.321V764.683H285.569Z" fill="#ECECEC"/>
<path d="M212.959 797.862V857.573H202.711V797.862H212.959Z" fill="#ECECEC"/>
<path d="M231.112 797.862V857.573H220.864V797.862H231.112Z" fill="#ECECEC"/>
<path d="M249.264 797.862V857.573H239.016V797.862H249.264Z" fill="#ECECEC"/>
<path d="M267.417 797.862V857.573H257.169V797.862H267.417Z" fill="#ECECEC"/>
<path d="M285.569 797.862V857.573H275.321V797.862H285.569Z" fill="#ECECEC"/>
<path d="M359.652 338.223V857.573H294.715V338.223H359.652Z" fill="#DCDCDC"/>
<path d="M362.462 327.883V338.224H294.714V327.883H362.462Z" fill="#C8C8C8"/>
<path d="M314.108 353.467V857.573H303.86V353.467H314.108Z" fill="#C8C8C8"/>
<path d="M332.26 353.467V857.573H322.012V353.467H332.26Z" fill="#C8C8C8"/>
<path d="M350.412 353.467V857.573H340.164V353.467H350.412Z" fill="#C8C8C8"/>
<path d="M314.108 366.534V386.949H303.86V366.534H314.108Z" fill="#DCDCDC"/>
<path d="M332.26 366.534V386.949H322.012V366.534H332.26Z" fill="#DCDCDC"/>
<path d="M350.412 366.534V386.949H340.164V366.534H350.412Z" fill="#DCDCDC"/>
<path d="M314.108 399.713V420.128H303.86V399.713H314.108Z" fill="#DCDCDC"/>
<path d="M332.26 399.713V420.128H322.012V399.713H332.26Z" fill="#DCDCDC"/>
<path d="M350.412 399.713V420.128H340.164V399.713H350.412Z" fill="#DCDCDC"/>
<path d="M314.108 432.892V453.307H303.86V432.892H314.108Z" fill="#DCDCDC"/>
<path d="M332.26 432.892V453.307H322.012V432.892H332.26Z" fill="#DCDCDC"/>
<path d="M350.412 432.892V453.307H340.164V432.892H350.412Z" fill="#DCDCDC"/>
<path d="M314.108 466.071V486.486H303.86V466.071H314.108Z" fill="#DCDCDC"/>
<path d="M332.26 466.071V486.486H322.012V466.071H332.26Z" fill="#DCDCDC"/>
<path d="M350.412 466.071V486.486H340.164V466.071H350.412Z" fill="#DCDCDC"/>
<path d="M314.108 499.25V519.665H303.86V499.25H314.108Z" fill="#DCDCDC"/>
<path d="M332.26 499.25V519.665H322.012V499.25H332.26Z" fill="#DCDCDC"/>
<path d="M350.412 499.25V519.665H340.164V499.25H350.412Z" fill="#DCDCDC"/>
<path d="M314.108 532.428V552.843H303.86V532.428H314.108Z" fill="#DCDCDC"/>
<path d="M332.26 532.428V552.843H322.012V532.428H332.26Z" fill="#DCDCDC"/>
<path d="M350.412 532.428V552.843H340.164V532.428H350.412Z" fill="#DCDCDC"/>
<path d="M314.108 565.608V586.023H303.86V565.608H314.108Z" fill="#DCDCDC"/>
<path d="M332.26 565.608V586.023H322.012V565.608H332.26Z" fill="#DCDCDC"/>
<path d="M350.412 565.608V586.023H340.164V565.608H350.412Z" fill="#DCDCDC"/>
<path d="M314.108 598.788V619.203H303.86V598.788H314.108Z" fill="#DCDCDC"/>
<path d="M332.26 598.788V619.203H322.012V598.788H332.26Z" fill="#DCDCDC"/>
<path d="M350.412 598.788V619.203H340.164V598.788H350.412Z" fill="#DCDCDC"/>
<path d="M314.108 631.966V652.381H303.86V631.966H314.108Z" fill="#DCDCDC"/>
<path d="M332.26 631.966V652.381H322.012V631.966H332.26Z" fill="#DCDCDC"/>
<path d="M350.412 631.966V652.381H340.164V631.966H350.412Z" fill="#DCDCDC"/>
<path d="M314.108 665.145V685.56H303.86V665.145H314.108Z" fill="#DCDCDC"/>
<path d="M332.26 665.145V685.56H322.012V665.145H332.26Z" fill="#DCDCDC"/>
<path d="M350.412 665.145V685.56H340.164V665.145H350.412Z" fill="#DCDCDC"/>
<path d="M314.108 698.325V718.74H303.86V698.325H314.108Z" fill="#DCDCDC"/>
<path d="M332.26 698.325V718.74H322.012V698.325H332.26Z" fill="#DCDCDC"/>
<path d="M350.412 698.325V718.74H340.164V698.325H350.412Z" fill="#DCDCDC"/>
<path d="M314.108 731.504V751.919H303.86V731.504H314.108Z" fill="#DCDCDC"/>
<path d="M332.26 731.504V751.919H322.012V731.504H332.26Z" fill="#DCDCDC"/>
<path d="M350.412 731.504V751.919H340.164V731.504H350.412Z" fill="#DCDCDC"/>
<path d="M314.108 764.683V785.098H303.86V764.683H314.108Z" fill="#DCDCDC"/>
<path d="M332.26 764.683V785.098H322.012V764.683H332.26Z" fill="#DCDCDC"/>
<path d="M350.412 764.683V785.098H340.164V764.683H350.412Z" fill="#DCDCDC"/>
<path d="M314.108 797.862V857.573H303.86V797.862H314.108Z" fill="#DCDCDC"/>
<path d="M332.26 797.862V857.573H322.012V797.862H332.26Z" fill="#DCDCDC"/>
<path d="M350.412 797.862V857.573H340.164V797.862H350.412Z" fill="#DCDCDC"/>
<path d="M176.583 503.77V867.573H80.6565V503.77H176.583Z" fill="#ECECEC"/>
<path d="M176.583 479.642V503.77H94.301V479.642H176.583Z" fill="#C8C8C8"/>
<path d="M166.066 516.364V788.33H91.174V516.364H166.066Z" fill="#DCDCDC"/>
<path d="M166.066 542.318V548.745H91.174V542.318H166.066Z" fill="white"/>
<path d="M166.066 568.939V575.366H91.174V568.939H166.066Z" fill="white"/>
<path d="M166.066 595.559V601.986H91.174V595.559H166.066Z" fill="white"/>
<path d="M166.066 622.18V628.607H91.174V622.18H166.066Z" fill="white"/>
<path d="M166.066 648.799V655.226H91.174V648.799H166.066Z" fill="white"/>
<path d="M166.066 675.421V681.848H91.174V675.421H166.066Z" fill="white"/>
<path d="M166.066 702.042V708.469H91.174V702.042H166.066Z" fill="white"/>
<path d="M166.066 728.661V735.088H91.174V728.661H166.066Z" fill="white"/>
<path d="M166.066 755.283V761.71H91.174V755.283H166.066Z" fill="white"/>
<path d="M166.066 781.902V788.329H91.174V781.902H166.066Z" fill="white"/>
<path d="M236.667 503.77V867.573H176.583V503.77H236.667Z" fill="#DCDCDC"/>
<path d="M227.651 479.642V503.77H176.583V479.642H227.651Z" fill="#A8A8A8"/>
<path d="M231.063 516.364V788.33H184.866V516.364H231.063Z" fill="#C8C8C8"/>
<path d="M231.063 542.318V548.745H184.866V542.318H231.063Z" fill="white"/>
<path d="M231.063 568.939V575.366H184.866V568.939H231.063Z" fill="white"/>
<path d="M231.063 595.559V601.986H184.866V595.559H231.063Z" fill="white"/>
<path d="M231.063 622.18V628.607H184.866V622.18H231.063Z" fill="white"/>
<path d="M231.063 648.799V655.226H184.866V648.799H231.063Z" fill="white"/>
<path d="M231.063 675.421V681.848H184.866V675.421H231.063Z" fill="white"/>
<path d="M231.063 702.042V708.469H184.866V702.042H231.063Z" fill="white"/>
<path d="M231.063 728.661V735.088H184.866V728.661H231.063Z" fill="white"/>
<path d="M231.063 755.283V761.71H184.866V755.283H231.063Z" fill="white"/>
<path d="M231.063 781.902V788.329H184.866V781.902H231.063Z" fill="white"/>
<path d="M632.975 671.383V867.573H535.261V671.383H632.975Z" fill="#C8C8C8"/>
<path d="M567.92 688.365V700.385H550.627V688.365H567.92Z" fill="#DCDCDC"/>
<path d="M567.92 714.038V726.058H550.627V714.038H567.92Z" fill="#DCDCDC"/>
<path d="M567.92 739.712V751.732H550.627V739.712H567.92Z" fill="#DCDCDC"/>
<path d="M567.92 765.385V777.405H550.627V765.385H567.92Z" fill="#DCDCDC"/>
<path d="M567.92 791.058V803.078H550.627V791.058H567.92Z" fill="#DCDCDC"/>
<path d="M567.92 816.732V828.752H550.627V816.732H567.92Z" fill="#DCDCDC"/>
<path d="M567.92 842.405V854.425H550.627V842.405H567.92Z" fill="#DCDCDC"/>
<path d="M592.795 688.365V700.385H575.502V688.365H592.795Z" fill="#DCDCDC"/>
<path d="M592.795 714.038V726.058H575.502V714.038H592.795Z" fill="#DCDCDC"/>
<path d="M592.795 739.712V751.732H575.502V739.712H592.795Z" fill="#DCDCDC"/>
<path d="M592.795 765.385V777.405H575.502V765.385H592.795Z" fill="#DCDCDC"/>
<path d="M592.795 791.058V803.078H575.502V791.058H592.795Z" fill="#DCDCDC"/>
<path d="M592.795 816.732V828.752H575.502V816.732H592.795Z" fill="#DCDCDC"/>
<path d="M592.795 842.405V854.425H575.502V842.405H592.795Z" fill="#DCDCDC"/>
<path d="M617.608 688.365V700.385H600.315V688.365H617.608Z" fill="#DCDCDC"/>
<path d="M617.608 714.038V726.058H600.315V714.038H617.608Z" fill="#DCDCDC"/>
<path d="M617.608 739.712V751.732H600.315V739.712H617.608Z" fill="#DCDCDC"/>
<path d="M617.608 765.385V777.405H600.315V765.385H617.608Z" fill="#DCDCDC"/>
<path d="M617.608 791.058V803.078H600.315V791.058H617.608Z" fill="#DCDCDC"/>
<path d="M617.608 816.732V828.752H600.315V816.732H617.608Z" fill="#DCDCDC"/>
<path d="M617.608 842.405V854.425H600.315V842.405H617.608Z" fill="#DCDCDC"/>
<path d="M632.975 650.942V671.383H567.92V650.942H632.975Z" fill="#DCDCDC"/>
<path d="M632.975 638.287V650.942H591.731V638.287H632.975Z" fill="#ECECEC"/>
<path d="M701.532 671.383V867.573H632.975V671.383H701.532Z" fill="#A8A8A8"/>
<path d="M694.515 840.488V852.508H680.438V840.488H694.515Z" fill="#C8C8C8"/>
<path d="M694.515 814.815V826.835H680.438V814.815H694.515Z" fill="#C8C8C8"/>
<path d="M694.515 789.141V801.161H680.438V789.141H694.515Z" fill="#C8C8C8"/>
<path d="M694.515 763.468V775.488H680.438V763.468H694.515Z" fill="#C8C8C8"/>
<path d="M694.515 737.795V749.815H680.438V737.795H694.515Z" fill="#C8C8C8"/>
<path d="M694.515 712.121V724.141H680.438V712.121H694.515Z" fill="#C8C8C8"/>
<path d="M694.515 686.448V698.468H680.438V686.448H694.515Z" fill="#C8C8C8"/>
<path d="M674.267 840.488V852.508H660.191V840.488H674.267Z" fill="#C8C8C8"/>
<path d="M674.267 814.815V826.835H660.191V814.815H674.267Z" fill="#C8C8C8"/>
<path d="M674.267 789.141V801.161H660.191V789.141H674.267Z" fill="#C8C8C8"/>
<path d="M674.267 763.468V775.488H660.191V763.468H674.267Z" fill="#C8C8C8"/>
<path d="M674.267 737.795V749.815H660.191V737.795H674.267Z" fill="#C8C8C8"/>
<path d="M674.267 712.121V724.141H660.191V712.121H674.267Z" fill="#C8C8C8"/>
<path d="M674.267 686.448V698.468H660.191V686.448H674.267Z" fill="#C8C8C8"/>
<path d="M654.068 840.488V852.508H639.992V840.488H654.068Z" fill="#C8C8C8"/>
<path d="M654.068 814.815V826.835H639.992V814.815H654.068Z" fill="#C8C8C8"/>
<path d="M654.068 789.141V801.161H639.992V789.141H654.068Z" fill="#C8C8C8"/>
<path d="M654.068 763.468V775.488H639.992V763.468H654.068Z" fill="#C8C8C8"/>
<path d="M654.068 737.795V749.815H639.992V737.795H654.068Z" fill="#C8C8C8"/>
<path d="M654.068 712.121V724.141H639.992V712.121H654.068Z" fill="#C8C8C8"/>
<path d="M654.068 686.448V698.468H639.992V686.448H654.068Z" fill="#C8C8C8"/>
<path d="M691.147 650.942V671.383H632.975V650.942H691.147Z" fill="#C8C8C8"/>
<path d="M664.498 638.287V650.942H632.975V638.287H664.498Z" fill="#DCDCDC"/>
<path d="M920.253 509.903V570.423H869.02V509.903H920.253Z" fill="#DCDCDC"/>
<path d="M952.737 509.903V572.643H920.253V509.903H952.737Z" fill="#C8C8C8"/>
<path d="M954.9 536.627V572.642H922.661V536.627H954.9Z" fill="#DCDCDC"/>
<path d="M932.213 566.489V867.572H849.369V566.489H932.213Z" fill="#ECECEC"/>
<path d="M884.89 579.433V590.077H858.839V579.433H884.89Z" fill="white"/>
<path d="M918.214 579.433V590.077H892.163V579.433H918.214Z" fill="white"/>
<path d="M884.89 597.505V608.149H858.839V597.505H884.89Z" fill="white"/>
<path d="M918.214 597.505V608.149H892.163V597.505H918.214Z" fill="white"/>
<path d="M884.89 615.577V626.221H858.839V615.577H884.89Z" fill="white"/>
<path d="M918.214 615.577V626.221H892.163V615.577H918.214Z" fill="white"/>
<path d="M884.89 633.649V644.293H858.839V633.649H884.89Z" fill="white"/>
<path d="M918.214 633.649V644.293H892.163V633.649H918.214Z" fill="white"/>
<path d="M884.89 651.72V662.364H858.839V651.72H884.89Z" fill="white"/>
<path d="M918.214 651.72V662.364H892.163V651.72H918.214Z" fill="white"/>
<path d="M884.89 669.792V680.436H858.839V669.792H884.89Z" fill="white"/>
<path d="M918.214 669.792V680.436H892.163V669.792H918.214Z" fill="white"/>
<path d="M884.89 687.864V698.508H858.839V687.864H884.89Z" fill="white"/>
<path d="M918.214 687.864V698.508H892.163V687.864H918.214Z" fill="white"/>
<path d="M884.89 705.936V716.58H858.839V705.936H884.89Z" fill="white"/>
<path d="M918.214 705.936V716.58H892.163V705.936H918.214Z" fill="white"/>
<path d="M884.89 724.008V734.652H858.839V724.008H884.89Z" fill="white"/>
<path d="M918.214 724.008V734.652H892.163V724.008H918.214Z" fill="white"/>
<path d="M884.89 742.08V752.724H858.839V742.08H884.89Z" fill="white"/>
<path d="M918.214 742.08V752.724H892.163V742.08H918.214Z" fill="white"/>
<path d="M884.89 760.152V770.796H858.839V760.152H884.89Z" fill="white"/>
<path d="M918.214 760.152V770.796H892.163V760.152H918.214Z" fill="white"/>
<path d="M884.89 778.224V788.868H858.839V778.224H884.89Z" fill="white"/>
<path d="M918.214 778.224V788.868H892.163V778.224H918.214Z" fill="white"/>
<path d="M884.89 796.296V806.94H858.839V796.296H884.89Z" fill="white"/>
<path d="M918.214 796.296V806.94H892.163V796.296H918.214Z" fill="white"/>
<path d="M884.89 814.368V825.012H858.839V814.368H884.89Z" fill="white"/>
<path d="M918.214 814.368V825.012H892.163V814.368H918.214Z" fill="white"/>
<path d="M999.343 566.489V867.572H932.213V566.489H999.343Z" fill="#C8C8C8"/>
<path d="M965.251 814.368V825.012H943.862V814.368H965.251Z" fill="#ECECEC"/>
<path d="M965.251 796.296V806.94H943.862V796.296H965.251Z" fill="#ECECEC"/>
<path d="M965.251 778.224V788.868H943.862V778.224H965.251Z" fill="#ECECEC"/>
<path d="M965.251 760.152V770.796H943.862V760.152H965.251Z" fill="#ECECEC"/>
<path d="M965.251 742.08V752.724H943.862V742.08H965.251Z" fill="#ECECEC"/>
<path d="M965.251 724.008V734.652H943.862V724.008H965.251Z" fill="#ECECEC"/>
<path d="M965.251 705.936V716.58H943.862V705.936H965.251Z" fill="#ECECEC"/>
<path d="M965.251 687.864V698.508H943.862V687.864H965.251Z" fill="#ECECEC"/>
<path d="M965.251 669.792V680.436H943.862V669.792H965.251Z" fill="#ECECEC"/>
<path d="M965.251 651.72V662.364H943.862V651.72H965.251Z" fill="#ECECEC"/>
<path d="M965.251 633.649V644.293H943.862V633.649H965.251Z" fill="#ECECEC"/>
<path d="M965.251 615.577V626.221H943.862V615.577H965.251Z" fill="#ECECEC"/>
<path d="M965.251 597.505V608.149H943.862V597.505H965.251Z" fill="#ECECEC"/>
<path d="M965.251 579.433V590.077H943.862V579.433H965.251Z" fill="#ECECEC"/>
<path d="M786.989 359.315V867.573H690.029V359.315H786.989Z" fill="#DCDCDC"/>
<path d="M723.927 375.823V395.23H705.079V375.823H723.927Z" fill="#ECECEC"/>
<path d="M748.038 375.823V395.23H729.19V375.823H748.038Z" fill="#ECECEC"/>
<path d="M723.927 408.772V428.179H705.079V408.772H723.927Z" fill="#ECECEC"/>
<path d="M748.038 408.772V428.179H729.19V408.772H748.038Z" fill="#ECECEC"/>
<path d="M723.927 441.72V461.127H705.079V441.72H723.927Z" fill="#ECECEC"/>
<path d="M748.038 441.72V461.127H729.19V441.72H748.038Z" fill="#ECECEC"/>
<path d="M723.927 474.669V494.076H705.079V474.669H723.927Z" fill="#ECECEC"/>
<path d="M748.038 474.669V494.076H729.19V474.669H748.038Z" fill="#ECECEC"/>
<path d="M723.927 507.617V527.024H705.079V507.617H723.927Z" fill="#ECECEC"/>
<path d="M748.038 507.617V527.024H729.19V507.617H748.038Z" fill="#ECECEC"/>
<path d="M723.927 540.566V559.973H705.079V540.566H723.927Z" fill="#ECECEC"/>
<path d="M748.038 540.566V559.973H729.19V540.566H748.038Z" fill="#ECECEC"/>
<path d="M723.927 573.515V592.922H705.079V573.515H723.927Z" fill="#ECECEC"/>
<path d="M748.038 573.515V592.922H729.19V573.515H748.038Z" fill="#ECECEC"/>
<path d="M723.927 606.463V625.87H705.079V606.463H723.927Z" fill="#ECECEC"/>
<path d="M748.038 606.463V625.87H729.19V606.463H748.038Z" fill="#ECECEC"/>
<path d="M723.927 639.412V658.819H705.079V639.412H723.927Z" fill="#ECECEC"/>
<path d="M748.038 639.412V658.819H729.19V639.412H748.038Z" fill="#ECECEC"/>
<path d="M723.927 672.361V691.768H705.079V672.361H723.927Z" fill="#ECECEC"/>
<path d="M748.038 672.361V691.768H729.19V672.361H748.038Z" fill="#ECECEC"/>
<path d="M723.927 705.31V724.717H705.079V705.31H723.927Z" fill="#ECECEC"/>
<path d="M748.038 705.31V724.717H729.19V705.31H748.038Z" fill="#ECECEC"/>
<path d="M723.927 738.258V757.665H705.079V738.258H723.927Z" fill="#ECECEC"/>
<path d="M748.038 738.258V757.665H729.19V738.258H748.038Z" fill="#ECECEC"/>
<path d="M723.927 771.206V790.613H705.079V771.206H723.927Z" fill="#ECECEC"/>
<path d="M748.038 771.206V790.613H729.19V771.206H748.038Z" fill="#ECECEC"/>
<path d="M723.927 804.156V823.563H705.079V804.156H723.927Z" fill="#ECECEC"/>
<path d="M771.939 804.156V823.563H753.091V804.156H771.939Z" fill="#ECECEC"/>
<path d="M771.939 771.206V790.613H753.091V771.206H771.939Z" fill="#ECECEC"/>
<path d="M771.939 738.258V757.665H753.091V738.258H771.939Z" fill="#ECECEC"/>
<path d="M771.939 705.31V724.717H753.091V705.31H771.939Z" fill="#ECECEC"/>
<path d="M771.939 672.361V691.768H753.091V672.361H771.939Z" fill="#ECECEC"/>
<path d="M771.939 639.412V658.819H753.091V639.412H771.939Z" fill="#ECECEC"/>
<path d="M771.939 606.463V625.87H753.091V606.463H771.939Z" fill="#ECECEC"/>
<path d="M771.939 573.515V592.922H753.091V573.515H771.939Z" fill="#ECECEC"/>
<path d="M771.939 540.566V559.973H753.091V540.566H771.939Z" fill="#ECECEC"/>
<path d="M771.939 507.617V527.024H753.091V507.617H771.939Z" fill="#ECECEC"/>
<path d="M771.939 474.669V494.076H753.091V474.669H771.939Z" fill="#ECECEC"/>
<path d="M771.939 441.72V461.127H753.091V441.72H771.939Z" fill="#ECECEC"/>
<path d="M771.939 408.772V428.179H753.091V408.772H771.939Z" fill="#ECECEC"/>
<path d="M771.939 375.823V395.23H753.091V375.823H771.939Z" fill="#ECECEC"/>
<path d="M748.038 804.156V823.563H729.19V804.156H748.038Z" fill="#ECECEC"/>
<path d="M863.435 359.315V867.573H786.989V359.315H863.435Z" fill="#A8A8A8"/>
<path d="M855.555 804.156V823.563H839.99V804.156H855.555Z" fill="#C8C8C8"/>
<path d="M835.643 804.156V823.563H820.078V804.156H835.643Z" fill="#C8C8C8"/>
<path d="M855.555 771.206V790.613H839.99V771.206H855.555Z" fill="#C8C8C8"/>
<path d="M835.643 771.206V790.613H820.078V771.206H835.643Z" fill="#C8C8C8"/>
<path d="M855.555 738.258V757.665H839.99V738.258H855.555Z" fill="#C8C8C8"/>
<path d="M835.643 738.258V757.665H820.078V738.258H835.643Z" fill="#C8C8C8"/>
<path d="M855.555 705.31V724.717H839.99V705.31H855.555Z" fill="#C8C8C8"/>
<path d="M835.643 705.31V724.717H820.078V705.31H835.643Z" fill="#C8C8C8"/>
<path d="M855.555 672.361V691.768H839.99V672.361H855.555Z" fill="#C8C8C8"/>
<path d="M835.643 672.361V691.768H820.078V672.361H835.643Z" fill="#C8C8C8"/>
<path d="M855.555 639.412V658.819H839.99V639.412H855.555Z" fill="#C8C8C8"/>
<path d="M835.643 639.412V658.819H820.078V639.412H835.643Z" fill="#C8C8C8"/>
<path d="M855.555 606.463V625.87H839.99V606.463H855.555Z" fill="#C8C8C8"/>
<path d="M835.643 606.463V625.87H820.078V606.463H835.643Z" fill="#C8C8C8"/>
<path d="M855.555 573.515V592.922H839.99V573.515H855.555Z" fill="#C8C8C8"/>
<path d="M835.643 573.515V592.922H820.078V573.515H835.643Z" fill="#C8C8C8"/>
<path d="M855.555 540.566V559.973H839.99V540.566H855.555Z" fill="#C8C8C8"/>
<path d="M835.643 540.566V559.973H820.078V540.566H835.643Z" fill="#C8C8C8"/>
<path d="M855.555 507.617V527.024H839.99V507.617H855.555Z" fill="#C8C8C8"/>
<path d="M835.643 507.617V527.024H820.078V507.617H835.643Z" fill="#C8C8C8"/>
<path d="M855.555 474.669V494.076H839.99V474.669H855.555Z" fill="#C8C8C8"/>
<path d="M835.643 474.669V494.076H820.078V474.669H835.643Z" fill="#C8C8C8"/>
<path d="M855.555 441.72V461.127H839.99V441.72H855.555Z" fill="#C8C8C8"/>
<path d="M835.643 441.72V461.127H820.078V441.72H835.643Z" fill="#C8C8C8"/>
<path d="M855.555 408.772V428.179H839.99V408.772H855.555Z" fill="#C8C8C8"/>
<path d="M835.643 408.772V428.179H820.078V408.772H835.643Z" fill="#C8C8C8"/>
<path d="M855.555 375.823V395.23H839.99V375.823H855.555Z" fill="#C8C8C8"/>
<path d="M815.905 375.823V395.23H800.34V375.823H815.905Z" fill="#C8C8C8"/>
<path d="M815.905 408.772V428.179H800.34V408.772H815.905Z" fill="#C8C8C8"/>
<path d="M815.905 441.72V461.127H800.34V441.72H815.905Z" fill="#C8C8C8"/>
<path d="M815.905 474.669V494.076H800.34V474.669H815.905Z" fill="#C8C8C8"/>
<path d="M815.905 507.617V527.024H800.34V507.617H815.905Z" fill="#C8C8C8"/>
<path d="M815.905 540.566V559.973H800.34V540.566H815.905Z" fill="#C8C8C8"/>
<path d="M815.905 573.515V592.922H800.34V573.515H815.905Z" fill="#C8C8C8"/>
<path d="M815.905 606.463V625.87H800.34V606.463H815.905Z" fill="#C8C8C8"/>
<path d="M815.905 639.412V658.819H800.34V639.412H815.905Z" fill="#C8C8C8"/>
<path d="M815.905 672.361V691.768H800.34V672.361H815.905Z" fill="#C8C8C8"/>
<path d="M815.905 705.31V724.717H800.34V705.31H815.905Z" fill="#C8C8C8"/>
<path d="M815.905 738.258V757.665H800.34V738.258H815.905Z" fill="#C8C8C8"/>
<path d="M815.905 771.206V790.613H800.34V771.206H815.905Z" fill="#C8C8C8"/>
<path d="M815.905 804.156V823.563H800.34V804.156H815.905Z" fill="#C8C8C8"/>
<path d="M835.643 375.823V395.23H820.078V375.823H835.643Z" fill="#C8C8C8"/>
<path d="M499.318 269.624V851.307H420.331V269.624H499.318Z" fill="#2B454E"/>
<path d="M499.318 302.206V308.319H420.331V302.206H499.318Z" fill="#375A64"/>
<path d="M443.01 326.289V360.298H428.471V326.289H443.01Z" fill="#1A2E35"/>
<path d="M443.01 369.201V403.21H428.471V369.201H443.01Z" fill="#1A2E35"/>
<path d="M443.01 412.114V446.123H428.471V412.114H443.01Z" fill="#1A2E35"/>
<path d="M443.01 455.001V489.01H428.471V455.001H443.01Z" fill="#1A2E35"/>
<path d="M443.01 497.914V531.923H428.471V497.914H443.01Z" fill="#1A2E35"/>
<path d="M443.01 540.826V574.835H428.471V540.826H443.01Z" fill="#1A2E35"/>
<path d="M443.01 583.714V617.723H428.471V583.714H443.01Z" fill="#1A2E35"/>
<path d="M443.01 626.626V660.635H428.471V626.626H443.01Z" fill="#1A2E35"/>
<path d="M443.01 669.538V703.547H428.471V669.538H443.01Z" fill="#1A2E35"/>
<path d="M443.01 712.426V746.435H428.471V712.426H443.01Z" fill="#1A2E35"/>
<path d="M443.01 755.338V789.347H428.471V755.338H443.01Z" fill="#1A2E35"/>
<path d="M443.01 798.25V832.259H428.471V798.25H443.01Z" fill="#1A2E35"/>
<path d="M443.01 326.289V360.298H428.471V326.289H443.01Z" fill="#1A2E35"/>
<path d="M443.01 369.201V403.21H428.471V369.201H443.01Z" fill="#1A2E35"/>
<path d="M443.01 412.114V446.123H428.471V412.114H443.01Z" fill="#1A2E35"/>
<path d="M443.01 455.001V489.01H428.471V455.001H443.01Z" fill="#1A2E35"/>
<path d="M443.01 497.914V531.923H428.471V497.914H443.01Z" fill="#1A2E35"/>
<path d="M443.01 540.826V574.835H428.471V540.826H443.01Z" fill="#1A2E35"/>
<path d="M443.01 583.714V617.723H428.471V583.714H443.01Z" fill="#1A2E35"/>
<path d="M443.01 626.626V660.635H428.471V626.626H443.01Z" fill="#1A2E35"/>
<path d="M443.01 669.538V703.547H428.471V669.538H443.01Z" fill="#1A2E35"/>
<path d="M443.01 712.426V746.435H428.471V712.426H443.01Z" fill="#1A2E35"/>
<path d="M443.01 755.338V789.347H428.471V755.338H443.01Z" fill="#1A2E35"/>
<path d="M443.01 798.25V832.259H428.471V798.25H443.01Z" fill="#1A2E35"/>
<path d="M467.094 326.289V360.298H452.556V326.289H467.094Z" fill="#1A2E35"/>
<path d="M467.094 369.201V403.21H452.556V369.201H467.094Z" fill="#1A2E35"/>
<path d="M467.094 412.114V446.123H452.556V412.114H467.094Z" fill="#1A2E35"/>
<path d="M467.094 455.001V489.01H452.556V455.001H467.094Z" fill="#1A2E35"/>
<path d="M467.094 497.914V531.923H452.556V497.914H467.094Z" fill="#1A2E35"/>
<path d="M467.094 540.826V574.835H452.556V540.826H467.094Z" fill="#1A2E35"/>
<path d="M467.094 583.714V617.723H452.556V583.714H467.094Z" fill="#1A2E35"/>
<path d="M467.094 626.626V660.635H452.556V626.626H467.094Z" fill="#1A2E35"/>
<path d="M467.094 669.538V703.547H452.556V669.538H467.094Z" fill="#1A2E35"/>
<path d="M467.094 712.426V746.435H452.556V712.426H467.094Z" fill="#1A2E35"/>
<path d="M467.094 755.338V789.347H452.556V755.338H467.094Z" fill="#1A2E35"/>
<path d="M467.094 798.25V832.259H452.556V798.25H467.094Z" fill="#1A2E35"/>
<path d="M467.094 326.289V360.298H452.556V326.289H467.094Z" fill="#1A2E35"/>
<path d="M467.094 369.201V403.21H452.556V369.201H467.094Z" fill="#1A2E35"/>
<path d="M467.094 412.114V446.123H452.556V412.114H467.094Z" fill="#1A2E35"/>
<path d="M467.094 455.001V489.01H452.556V455.001H467.094Z" fill="#1A2E35"/>
<path d="M467.094 497.914V531.923H452.556V497.914H467.094Z" fill="#1A2E35"/>
<path d="M467.094 540.826V574.835H452.556V540.826H467.094Z" fill="#1A2E35"/>
<path d="M467.094 583.714V617.723H452.556V583.714H467.094Z" fill="#1A2E35"/>
<path d="M467.094 626.626V660.635H452.556V626.626H467.094Z" fill="#1A2E35"/>
<path d="M467.094 669.538V703.547H452.556V669.538H467.094Z" fill="#1A2E35"/>
<path d="M467.094 712.426V746.435H452.556V712.426H467.094Z" fill="#1A2E35"/>
<path d="M467.094 755.338V789.347H452.556V755.338H467.094Z" fill="#1A2E35"/>
<path d="M467.094 798.25V832.259H452.556V798.25H467.094Z" fill="#1A2E35"/>
<path d="M491.178 326.289V360.298H476.64V326.289H491.178Z" fill="#1A2E35"/>
<path d="M491.178 369.201V403.21H476.64V369.201H491.178Z" fill="#1A2E35"/>
<path d="M491.178 412.114V446.123H476.64V412.114H491.178Z" fill="#1A2E35"/>
<path d="M491.178 455.001V489.01H476.64V455.001H491.178Z" fill="#1A2E35"/>
<path d="M491.178 497.914V531.923H476.64V497.914H491.178Z" fill="#1A2E35"/>
<path d="M491.178 540.826V574.835H476.64V540.826H491.178Z" fill="#1A2E35"/>
<path d="M491.178 583.714V617.723H476.64V583.714H491.178Z" fill="#1A2E35"/>
<path d="M491.178 626.626V660.635H476.64V626.626H491.178Z" fill="#1A2E35"/>
<path d="M491.178 669.538V703.547H476.64V669.538H491.178Z" fill="#1A2E35"/>
<path d="M491.178 712.426V746.435H476.64V712.426H491.178Z" fill="#1A2E35"/>
<path d="M491.178 755.338V789.347H476.64V755.338H491.178Z" fill="#1A2E35"/>
<path d="M491.178 798.25V832.259H476.64V798.25H491.178Z" fill="#1A2E35"/>
<path d="M491.178 326.289V360.298H476.64V326.289H491.178Z" fill="#1A2E35"/>
<path d="M491.178 369.201V403.21H476.64V369.201H491.178Z" fill="#1A2E35"/>
<path d="M491.178 412.114V446.123H476.64V412.114H491.178Z" fill="#1A2E35"/>
<path d="M491.178 455.001V489.01H476.64V455.001H491.178Z" fill="#1A2E35"/>
<path d="M491.178 497.914V531.923H476.64V497.914H491.178Z" fill="#1A2E35"/>
<path d="M491.178 540.826V574.835H476.64V540.826H491.178Z" fill="#1A2E35"/>
<path d="M491.178 583.714V617.723H476.64V583.714H491.178Z" fill="#1A2E35"/>
<path d="M491.178 626.626V660.635H476.64V626.626H491.178Z" fill="#1A2E35"/>
<path d="M491.178 669.538V703.547H476.64V669.538H491.178Z" fill="#1A2E35"/>
<path d="M491.178 712.426V746.435H476.64V712.426H491.178Z" fill="#1A2E35"/>
<path d="M491.178 755.338V789.347H476.64V755.338H491.178Z" fill="#1A2E35"/>
<path d="M491.178 798.25V832.259H476.64V798.25H491.178Z" fill="#1A2E35"/>
<path d="M420.332 269.624V851.307H285.302V269.624H420.332Z" fill="#375A64"/>
<path d="M420.332 302.206V308.319H285.302V302.206H420.332Z" fill="#2B454E"/>
<path d="M420.332 236.945V269.624H333.432V236.945H420.332Z" fill="#2B454E"/>
<path d="M461.164 236.945V269.624H420.331V236.945H461.164Z" fill="#1A2E35"/>
<path d="M323.372 326.289V360.298H299.768V326.289H323.372Z" fill="#1A2E35"/>
<path d="M323.372 369.201V403.21H299.768V369.201H323.372Z" fill="#1A2E35"/>
<path d="M323.372 412.114V446.123H299.768V412.114H323.372Z" fill="#1A2E35"/>
<path d="M323.372 455.001V489.01H299.768V455.001H323.372Z" fill="#1A2E35"/>
<path d="M323.372 497.914V531.923H299.768V497.914H323.372Z" fill="#1A2E35"/>
<path d="M323.372 540.826V574.835H299.768V540.826H323.372Z" fill="#1A2E35"/>
<path d="M323.372 583.714V617.723H299.768V583.714H323.372Z" fill="#1A2E35"/>
<path d="M323.372 626.626V660.635H299.768V626.626H323.372Z" fill="#1A2E35"/>
<path d="M323.372 669.538V703.547H299.768V669.538H323.372Z" fill="#1A2E35"/>
<path d="M323.372 712.426V746.435H299.768V712.426H323.372Z" fill="#1A2E35"/>
<path d="M323.372 755.338V789.347H299.768V755.338H323.372Z" fill="#1A2E35"/>
<path d="M323.372 798.25V832.259H299.768V798.25H323.372Z" fill="#1A2E35"/>
<path d="M323.372 326.289V360.298H299.768V326.289H323.372Z" fill="#1A2E35"/>
<path d="M323.372 369.201V403.21H299.768V369.201H323.372Z" fill="#1A2E35"/>
<path d="M323.372 412.114V446.123H299.768V412.114H323.372Z" fill="#1A2E35"/>
<path d="M323.372 455.001V489.01H299.768V455.001H323.372Z" fill="#1A2E35"/>
<path d="M323.372 497.914V531.923H299.768V497.914H323.372Z" fill="#1A2E35"/>
<path d="M323.372 540.826V574.835H299.768V540.826H323.372Z" fill="#1A2E35"/>
<path d="M323.372 583.714V617.723H299.768V583.714H323.372Z" fill="#1A2E35"/>
<path d="M323.372 626.626V660.635H299.768V626.626H323.372Z" fill="#1A2E35"/>
<path d="M323.372 669.538V703.547H299.768V669.538H323.372Z" fill="#1A2E35"/>
<path d="M323.372 712.426V746.435H299.768V712.426H323.372Z" fill="#1A2E35"/>
<path d="M323.372 755.338V789.347H299.768V755.338H323.372Z" fill="#1A2E35"/>
<path d="M323.372 798.25V832.259H299.768V798.25H323.372Z" fill="#1A2E35"/>
<path d="M362.475 326.289V360.298H338.871V326.289H362.475Z" fill="#1A2E35"/>
<path d="M362.475 369.201V403.21H338.871V369.201H362.475Z" fill="#1A2E35"/>
<path d="M362.475 412.114V446.123H338.871V412.114H362.475Z" fill="#1A2E35"/>
<path d="M362.475 455.001V489.01H338.871V455.001H362.475Z" fill="#1A2E35"/>
<path d="M362.475 497.914V531.923H338.871V497.914H362.475Z" fill="#1A2E35"/>
<path d="M362.475 540.826V574.835H338.871V540.826H362.475Z" fill="#1A2E35"/>
<path d="M362.475 583.714V617.723H338.871V583.714H362.475Z" fill="#1A2E35"/>
<path d="M362.475 626.626V660.635H338.871V626.626H362.475Z" fill="#1A2E35"/>
<path d="M362.475 669.538V703.547H338.871V669.538H362.475Z" fill="#1A2E35"/>
<path d="M362.475 712.426V746.435H338.871V712.426H362.475Z" fill="#1A2E35"/>
<path d="M362.475 755.338V789.347H338.871V755.338H362.475Z" fill="#1A2E35"/>
<path d="M362.475 798.25V832.259H338.871V798.25H362.475Z" fill="#1A2E35"/>
<path d="M362.475 326.289V360.298H338.871V326.289H362.475Z" fill="#1A2E35"/>
<path d="M362.475 369.201V403.21H338.871V369.201H362.475Z" fill="#1A2E35"/>
<path d="M362.475 412.114V446.123H338.871V412.114H362.475Z" fill="#1A2E35"/>
<path d="M362.475 455.001V489.01H338.871V455.001H362.475Z" fill="#1A2E35"/>
<path d="M362.475 497.914V531.923H338.871V497.914H362.475Z" fill="#1A2E35"/>
<path d="M362.475 540.826V574.835H338.871V540.826H362.475Z" fill="#1A2E35"/>
<path d="M362.475 583.714V617.723H338.871V583.714H362.475Z" fill="#1A2E35"/>
<path d="M362.475 626.626V660.635H338.871V626.626H362.475Z" fill="#1A2E35"/>
<path d="M362.475 669.538V703.547H338.871V669.538H362.475Z" fill="#1A2E35"/>
<path d="M362.475 712.426V746.435H338.871V712.426H362.475Z" fill="#1A2E35"/>
<path d="M362.475 755.338V789.347H338.871V755.338H362.475Z" fill="#1A2E35"/>
<path d="M362.475 798.25V832.259H338.871V798.25H362.475Z" fill="#1A2E35"/>
<path d="M401.578 326.289V360.298H377.974V326.289H401.578Z" fill="#1A2E35"/>
<path d="M401.578 369.201V403.21H377.974V369.201H401.578Z" fill="#1A2E35"/>
<path d="M401.578 412.114V446.123H377.974V412.114H401.578Z" fill="#1A2E35"/>
<path d="M401.578 455.001V489.01H377.974V455.001H401.578Z" fill="#1A2E35"/>
<path d="M401.578 497.914V531.923H377.974V497.914H401.578Z" fill="#1A2E35"/>
<path d="M401.578 540.826V574.835H377.974V540.826H401.578Z" fill="#1A2E35"/>
<path d="M401.578 583.714V617.723H377.974V583.714H401.578Z" fill="#1A2E35"/>
<path d="M401.578 626.626V660.635H377.974V626.626H401.578Z" fill="#1A2E35"/>
<path d="M401.578 669.538V703.547H377.974V669.538H401.578Z" fill="#1A2E35"/>
<path d="M401.578 712.426V746.435H377.974V712.426H401.578Z" fill="#1A2E35"/>
<path d="M401.578 755.338V789.347H377.974V755.338H401.578Z" fill="#1A2E35"/>
<path d="M401.578 798.25V832.259H377.974V798.25H401.578Z" fill="#1A2E35"/>
<path d="M401.578 326.289V360.298H377.974V326.289H401.578Z" fill="#1A2E35"/>
<path d="M401.578 369.201V403.21H377.974V369.201H401.578Z" fill="#1A2E35"/>
<path d="M401.578 412.114V446.123H377.974V412.114H401.578Z" fill="#1A2E35"/>
<path d="M401.578 455.001V489.01H377.974V455.001H401.578Z" fill="#1A2E35"/>
<path d="M401.578 497.914V531.923H377.974V497.914H401.578Z" fill="#1A2E35"/>
<path d="M401.578 540.826V574.835H377.974V540.826H401.578Z" fill="#1A2E35"/>
<path d="M401.578 583.714V617.723H377.974V583.714H401.578Z" fill="#1A2E35"/>
<path d="M401.578 626.626V660.635H377.974V626.626H401.578Z" fill="#1A2E35"/>
<path d="M401.578 669.538V703.547H377.974V669.538H401.578Z" fill="#1A2E35"/>
<path d="M401.578 712.426V746.435H377.974V712.426H401.578Z" fill="#1A2E35"/>
<path d="M401.578 755.338V789.347H377.974V755.338H401.578Z" fill="#1A2E35"/>
<path d="M401.578 798.25V832.259H377.974V798.25H401.578Z" fill="#1A2E35"/>
<path d="M234.054 851.308H127.01V515.5L234.054 446.124V851.308Z" fill="#FFC800"/>
<g opacity="0.5">
<path d="M220.296 851.308H139.056V524.895L220.296 472.242V851.308Z" fill="#FFC800"/>
<g opacity="0.3">
<path d="M220.296 851.308H139.056V524.895L220.296 472.242V851.308Z" fill="black"/>
</g>
<path d="M220.295 533.132H148.359V530.544H220.295V533.132Z" fill="black"/>
<path d="M220.295 554.344H148.359V551.756H220.295V554.344Z" fill="black"/>
<path d="M220.295 575.556H148.359V572.968H220.295V575.556Z" fill="black"/>
<path d="M220.295 596.767H148.359V594.179H220.295V596.767Z" fill="black"/>
<path d="M220.295 617.979H148.359V615.391H220.295V617.979Z" fill="black"/>
<path d="M220.295 639.191H148.359V636.603H220.295V639.191Z" fill="black"/>
<path d="M220.295 660.402H148.359V657.814H220.295V660.402Z" fill="black"/>
<path d="M220.295 681.614H148.359V679.026H220.295V681.614Z" fill="black"/>
<path d="M220.295 702.826H148.359V700.238H220.295V702.826Z" fill="black"/>
<path d="M220.295 724.037H148.359V721.449H220.295V724.037Z" fill="black"/>
<path d="M220.295 745.249H148.359V742.661H220.295V745.249Z" fill="black"/>
<path d="M220.295 766.461H148.359V763.873H220.295V766.461Z" fill="black"/>
<path d="M220.295 787.672H148.359V785.084H220.295V787.672Z" fill="black"/>
<path d="M220.295 808.884H148.359V806.296H220.295V808.884Z" fill="black"/>
<path d="M220.295 830.096H148.359V827.508H220.295V830.096Z" fill="black"/>
<path d="M220.295 851.307H148.359V848.719H220.295V851.307Z" fill="black"/>
<path d="M185.621 505.895V851.307H183.033V505.895H185.621Z" fill="black"/>
<path d="M220.294 472.24V483.923L148.359 530.544V851.308H139.062V524.888L220.294 472.24Z" fill="#FFC800"/>
<g opacity="0.2">
<path d="M220.294 472.24V483.923L148.359 530.544V851.308H139.062V524.888L220.294 472.24Z" fill="black"/>
</g>
</g>
<path d="M328.361 851.308H234.055V446.124H328.361V851.308Z" fill="#FFC800"/>
<g opacity="0.2">
<path d="M328.361 851.308H234.055V446.124H328.361V851.308Z" fill="black"/>
</g>
<g opacity="0.2">
<path d="M319.211 481.41H243.205V472.24H319.211V481.41ZM319.211 502.189H243.205V493.019H319.211V502.189ZM319.211 522.968H243.205V513.798H319.211V522.968ZM319.211 543.746H243.205V534.576H319.211V543.746ZM319.211 564.525H243.205V555.355H319.211V564.525ZM319.211 585.304H243.205V576.133H319.211V585.304ZM319.211 606.082H243.205V596.912H319.211V606.082ZM319.211 626.861H243.205V617.691H319.211V626.861ZM319.211 647.64H243.205V638.469H319.211V647.64ZM319.211 668.418H243.205V659.248H319.211V668.418ZM319.211 689.197H243.205V680.027H319.211V689.197ZM319.211 709.975H243.205V700.805H319.211V709.975ZM319.211 730.754H243.205V721.584H319.211V730.754ZM319.211 751.533H243.205V742.363H319.211V751.533ZM319.211 772.311H243.205V763.141H319.211V772.311ZM319.211 793.09H243.205V783.92H319.211V793.09ZM319.211 813.868H243.205V804.698H319.211V813.868ZM319.211 834.647H243.205V825.477H319.211V834.647Z" fill="black"/>
</g>
<path d="M718.317 422.3V851.307H633.461V422.3H718.317Z" fill="#CB9F00"/>
<path d="M723.39 408.241V422.301H633.461V408.241H723.39Z" fill="#FFC800"/>
<path d="M709.709 386.293V408.241H633.461V386.293H709.709Z" fill="#CB9F00"/>
<path d="M691.795 337.882V386.294H633.461V337.882H691.795Z" fill="#A38107"/>
<g opacity="0.2">
<path d="M653.106 438.562V483.685H641.595V438.562H653.106ZM653.106 500.035V545.159H641.595V500.035H653.106ZM653.106 561.509V606.632H641.595V561.509H653.106ZM653.106 622.982V668.106H641.595V622.982H653.106ZM653.106 684.456V729.579H641.595V684.456H653.106ZM653.106 745.929V791.053H641.595V745.929H653.106ZM672.132 438.562V483.685H660.621V438.562H672.132ZM672.132 500.035V545.159H660.621V500.035H672.132ZM672.132 561.509V606.632H660.621V561.509H672.132ZM672.132 622.982V668.106H660.621V622.982H672.132ZM672.132 684.456V729.579H660.621V684.456H672.132ZM672.132 745.929V791.053H660.621V745.929H672.132ZM691.157 438.562V483.685H679.646V438.562H691.157ZM691.157 500.035V545.159H679.646V500.035H691.157ZM691.157 561.509V606.632H679.646V561.509H691.157ZM691.157 622.982V668.106H679.646V622.982H691.157ZM691.157 684.456V729.579H679.646V684.456H691.157ZM691.157 745.929V791.053H679.646V745.929H691.157ZM710.183 438.562V483.685H698.671V438.562H710.183ZM710.183 500.035V545.159H698.671V500.035H710.183ZM710.183 561.509V606.632H698.671V561.509H710.183ZM710.183 622.982V668.106H698.671V622.982H710.183ZM710.183 684.456V729.579H698.671V684.456H710.183ZM710.183 745.929V791.053H698.671V745.929H710.183Z" fill="black"/>
</g>
<path d="M633.461 422.3V851.307H459.523V422.3H633.461Z" fill="#FFC800"/>
<path d="M633.461 386.293V408.241H467.855V386.293H633.461Z" fill="#FFC800"/>
<path d="M634.461 337.882V386.294H509.846V337.882H634.461Z" fill="#CB9F00"/>
<path d="M633.461 408.241V422.301H454.317V408.241H633.461Z" fill="#FFC800"/>
<g opacity="0.2">
<path d="M633.461 408.241V422.301H454.317V408.241H633.461Z" fill="black"/>
</g>
<g opacity="0.2">
<path d="M499.762 438.562V483.685H476.152V438.562H499.762ZM499.762 500.035V545.159H476.152V500.035H499.762ZM499.762 561.509V606.632H476.152V561.509H499.762ZM499.762 622.982V668.106H476.152V622.982H499.762ZM499.762 684.456V729.579H476.152V684.456H499.762ZM499.762 745.929V791.053H476.152V745.929H499.762ZM538.785 438.562V483.685H515.175V438.562H538.785ZM538.785 500.035V545.159H515.175V500.035H538.785ZM538.785 561.509V606.632H515.175V561.509H538.785ZM538.785 622.982V668.106H515.175V622.982H538.785ZM538.785 684.456V729.579H515.175V684.456H538.785ZM538.785 745.929V791.053H515.175V745.929H538.785ZM577.808 438.562V483.685H554.198V438.562H577.808ZM577.808 500.035V545.159H554.198V500.035H577.808ZM577.808 561.509V606.632H554.198V561.509H577.808ZM577.808 622.982V668.106H554.198V622.982H577.808ZM577.808 684.456V729.579H554.198V684.456H577.808ZM577.808 745.929V791.053H554.198V745.929H577.808ZM616.831 438.562V483.685H593.221V438.562H616.831ZM616.831 500.035V545.159H593.221V500.035H616.831ZM616.831 561.509V606.632H593.221V561.509H616.831ZM616.831 622.982V668.106H593.221V622.982H616.831ZM616.831 684.456V729.579H593.221V684.456H616.831ZM616.831 745.929V791.053H593.221V745.929H616.831Z" fill="black"/>
</g>
<g opacity="0.3">
<path d="M577.809 808.786V851.307H515.176V808.786H577.809Z" fill="black"/>
</g>
<path d="M892.406 606.673V851.307H807.55V606.673H892.406Z" fill="#CB9F00"/>
<path d="M897.479 592.615V606.674H807.55V592.615H897.479Z" fill="#FFC800"/>
<path d="M883.797 570.666V592.614H807.55V570.666H883.797Z" fill="#CB9F00"/>
<path d="M827.195 622.935V668.058H815.684V622.935H827.195Z" fill="#9E7800"/>
<path d="M827.195 684.408V729.531H815.684V684.408H827.195Z" fill="#9E7800"/>
<path d="M827.195 745.882V791.005H815.684V745.882H827.195Z" fill="#9E7800"/>
<path d="M846.221 622.935V668.058H834.71V622.935H846.221Z" fill="#9E7800"/>
<path d="M846.221 684.408V729.531H834.71V684.408H846.221Z" fill="#9E7800"/>
<path d="M846.221 745.882V791.005H834.71V745.882H846.221Z" fill="#9E7800"/>
<path d="M865.246 622.935V668.058H853.735V622.935H865.246Z" fill="#9E7800"/>
<path d="M865.246 684.408V729.531H853.735V684.408H865.246Z" fill="#9E7800"/>
<path d="M865.246 745.882V791.005H853.735V745.882H865.246Z" fill="#9E7800"/>
<path d="M884.272 622.935V668.058H872.761V622.935H884.272Z" fill="#9E7800"/>
<path d="M884.272 684.408V729.531H872.761V684.408H884.272Z" fill="#9E7800"/>
<path d="M884.272 745.882V791.005H872.761V745.882H884.272Z" fill="#9E7800"/>
<path d="M807.55 606.673V851.307H633.613V606.673H807.55Z" fill="#FFC800"/>
<path d="M807.551 570.666V592.614H641.945V570.666H807.551Z" fill="#FFC800"/>
<path d="M807.551 592.615V606.674H628.407V592.615H807.551Z" fill="#CB9F00"/>
<path d="M673.853 624.685V669.808H650.243V624.685H673.853Z" fill="#B28B00"/>
<path d="M673.853 684.408V729.531H650.243V684.408H673.853Z" fill="#B28B00"/>
<path d="M673.853 745.882V791.005H650.243V745.882H673.853Z" fill="#B28B00"/>
<path d="M712.876 624.685V669.808H689.266V624.685H712.876Z" fill="#B28B00"/>
<path d="M712.876 684.408V729.531H689.266V684.408H712.876Z" fill="#B28B00"/>
<path d="M712.876 745.882V791.005H689.266V745.882H712.876Z" fill="#B28B00"/>
<path d="M751.898 624.685V669.808H728.288V624.685H751.898Z" fill="#B28B00"/>
<path d="M751.898 684.408V729.531H728.288V684.408H751.898Z" fill="#B28B00"/>
<path d="M751.898 745.882V791.005H728.288V745.882H751.898Z" fill="#B28B00"/>
<path d="M790.921 624.685V669.808H767.311V624.685H790.921Z" fill="#B28B00"/>
<path d="M790.921 686.158V731.281H767.311V686.158H790.921Z" fill="#B28B00"/>
<path d="M790.921 747.632V792.755H767.311V747.632H790.921Z" fill="#B28B00"/>
<path d="M890.644 397.89V851.308H742.973V397.89H890.644Z" fill="#375A64"/>
<path d="M890.091 352.278V397.89H779.592V352.278H890.091Z" fill="#2B454E"/>
<path d="M798.238 359.315V390.853H788.792V359.315H798.238Z" fill="#375A64"/>
<path d="M814.769 359.315V390.853H805.323V359.315H814.769Z" fill="#375A64"/>
<path d="M831.299 359.315V390.853H821.853V359.315H831.299Z" fill="#375A64"/>
<path d="M847.829 359.315V390.853H838.383V359.315H847.829Z" fill="#375A64"/>
<path d="M864.36 359.315V390.853H854.914V359.315H864.36Z" fill="#375A64"/>
<path d="M880.89 359.315V390.853H871.444V359.315H880.89Z" fill="#375A64"/>
<path d="M940.338 352.278V397.89H890.091V352.278H940.338Z" fill="#375A64"/>
<path d="M905.171 359.315V390.853H897.136V359.315H905.171Z" fill="#2B454E"/>
<path d="M919.232 359.315V390.853H911.197V359.315H919.232Z" fill="#2B454E"/>
<path d="M933.294 359.315V390.853H925.259V359.315H933.294Z" fill="#2B454E"/>
<path d="M965.251 397.89V851.308H890.091V397.89H965.251Z" fill="#2B454E"/>
<path d="M803.932 329.167V352.278H800.551V329.167H803.932Z" fill="#1A2E35"/>
<path d="M869.132 329.167V352.278H865.751V329.167H869.132Z" fill="#1A2E35"/>
<path d="M884.109 288.755V329.167H785.573V288.755H884.109Z" fill="#FFC800"/>
<path d="M800.457 429.118V470.855H773.2V429.118H800.457Z" fill="#1A2E35"/>
<path d="M855.939 429.118V470.855H828.682V429.118H855.939Z" fill="#1A2E35"/>
<path d="M800.457 494.891V536.628H773.2V494.891H800.457Z" fill="#1A2E35"/>
<path d="M855.939 494.891V536.628H828.682V494.891H855.939Z" fill="#1A2E35"/>
<path d="M800.457 560.663V602.4H773.2V560.663H800.457Z" fill="#1A2E35"/>
<path d="M855.939 560.663V602.4H828.682V560.663H855.939Z" fill="#1A2E35"/>
<path d="M800.457 626.434V668.171H773.2V626.434H800.457Z" fill="#1A2E35"/>
<path d="M855.939 626.434V668.171H828.682V626.434H855.939Z" fill="#1A2E35"/>
<path d="M800.457 692.206V733.943H773.2V692.206H800.457Z" fill="#1A2E35"/>
<path d="M855.939 692.206V733.943H828.682V692.206H855.939Z" fill="#1A2E35"/>
<path d="M800.457 757.978V799.715H773.2V757.978H800.457Z" fill="#1A2E35"/>
<path d="M855.939 757.978V799.715H828.682V757.978H855.939Z" fill="#1A2E35"/>
<path d="M919.561 429.118V470.855H903.897V429.118H919.561Z" fill="#1A2E35"/>
<path d="M951.445 429.118V470.855H935.781V429.118H951.445Z" fill="#1A2E35"/>
<path d="M919.561 494.891V536.628H903.897V494.891H919.561Z" fill="#1A2E35"/>
<path d="M951.445 494.891V536.628H935.781V494.891H951.445Z" fill="#1A2E35"/>
<path d="M919.561 560.663V602.4H903.897V560.663H919.561Z" fill="#1A2E35"/>
<path d="M951.445 560.663V602.4H935.781V560.663H951.445Z" fill="#1A2E35"/>
<path d="M919.561 626.434V668.171H903.897V626.434H919.561Z" fill="#1A2E35"/>
<path d="M951.445 626.434V668.171H935.781V626.434H951.445Z" fill="#1A2E35"/>
<path d="M919.561 692.206V733.943H903.897V692.206H919.561Z" fill="#1A2E35"/>
<path d="M951.445 692.206V733.943H935.781V692.206H951.445Z" fill="#1A2E35"/>
<path d="M919.561 757.978V799.715H903.897V757.978H919.561Z" fill="#1A2E35"/>
<path d="M951.445 757.978V799.715H935.781V757.978H951.445Z" fill="#1A2E35"/>
<path d="M178.448 851.308C178.448 851.308 176.564 842.52 172.803 841.166C169.042 839.812 166.753 843.756 166.753 843.756C166.753 843.756 165.867 835.36 160.534 832.847C155.201 830.334 151.198 835.48 151.198 835.48C151.198 835.48 147.105 824.825 139.794 824.825C132.483 824.825 128.794 840.414 128.794 840.414C128.794 840.414 124.481 835.768 120.057 838.392C115.633 841.016 115.632 851.308 115.632 851.308H178.448Z" fill="#2B454E"/>
<path d="M802.389 851.308C802.389 851.308 800.506 842.52 796.745 841.166C792.984 839.812 790.695 843.756 790.695 843.756C790.695 843.756 789.808 835.36 784.475 832.847C779.142 830.334 775.139 835.48 775.139 835.48C775.139 835.48 771.046 824.825 763.735 824.825C756.424 824.825 752.735 840.414 752.735 840.414C752.735 840.414 748.422 835.768 743.998 838.392C739.574 841.016 739.574 851.308 739.574 851.308H802.389Z" fill="#375A64"/>
<path d="M344.656 851.308H278.542C278.542 851.308 280.72 841.987 285.104 841.327C289.488 840.667 291.527 844.989 291.527 844.989C291.527 844.989 291.329 831.99 299.517 829.775C307.705 827.561 314.571 839.046 314.571 839.046C314.571 839.046 319.706 832.496 326.701 832.916C333.697 833.336 335.473 844.156 335.473 844.156C335.473 844.156 341.842 840.4 344.656 851.308Z" fill="#2B454E"/>
<path d="M119.694 851.308H84.888C84.888 851.308 84.968 846.127 88.39 844.753C91.812 843.379 93.846 846.06 93.846 846.06C93.846 846.06 95.242 836.536 101.618 836.536C107.994 836.536 111.046 844.753 111.046 844.753C111.046 844.753 112.474 842.269 116.014 842.731C119.554 843.193 119.694 851.308 119.694 851.308Z" fill="#375A64"/>
<path d="M371.966 851.308H337.16C337.16 851.308 337.241 846.127 340.662 844.753C344.083 843.379 346.117 846.06 346.117 846.06C346.117 846.06 347.513 836.536 353.889 836.536C360.265 836.536 363.317 844.753 363.317 844.753C363.317 844.753 364.745 842.269 368.285 842.731C371.825 843.193 371.966 851.308 371.966 851.308Z" fill="#375A64"/>
<path d="M944.337 851.308H909.531C909.531 851.308 909.611 846.127 913.033 844.753C916.454 843.379 918.489 846.06 918.489 846.06C918.489 846.06 919.884 836.536 926.26 836.536C932.636 836.536 935.689 844.753 935.689 844.753C935.689 844.753 937.116 842.269 940.656 842.731C944.196 843.193 944.337 851.308 944.337 851.308Z" fill="#375A64"/>
<path d="M995.112 851.308H937.738C937.738 851.308 937.871 842.769 943.511 840.503C949.151 838.237 952.504 842.658 952.504 842.658C952.504 842.658 954.804 826.957 965.315 826.957C975.826 826.957 980.856 840.503 980.856 840.503C980.856 840.503 983.21 836.408 989.045 837.17C994.88 837.932 995.112 851.308 995.112 851.308Z" fill="#2B454E"/>
<path d="M1006.85 851.307V867.572H73.1545V851.307H1006.85Z" fill="#C8C8C8"/>
<path d="M138.613 851.308C139.489 854.019 139.686 856.729 139.723 859.44C139.691 862.151 139.494 864.862 138.613 867.573C137.733 864.862 137.536 862.151 137.504 859.44C137.541 856.729 137.738 854.019 138.613 851.308Z" fill="#1A2E35"/>
<path d="M211.593 851.308C212.469 854.019 212.665 856.729 212.703 859.44C212.671 862.151 212.473 864.862 211.593 867.573C210.713 864.862 210.515 862.151 210.483 859.44C210.52 856.729 210.717 854.019 211.593 851.308Z" fill="#1A2E35"/>
<path d="M284.572 851.308C285.448 854.019 285.644 856.729 285.682 859.44C285.65 862.151 285.452 864.862 284.572 867.573C283.692 864.862 283.495 862.151 283.463 859.44C283.5 856.729 283.696 854.019 284.572 851.308Z" fill="#1A2E35"/>
<path d="M357.551 851.308C358.427 854.019 358.624 856.729 358.661 859.44C358.629 862.151 358.432 864.862 357.551 867.573C356.671 864.862 356.474 862.151 356.442 859.44C356.479 856.729 356.676 854.019 357.551 851.308Z" fill="#1A2E35"/>
<path d="M430.531 851.308C431.407 854.019 431.604 856.729 431.641 859.44C431.609 862.151 431.411 864.862 430.531 867.573C429.651 864.862 429.453 862.151 429.421 859.44C429.459 856.729 429.655 854.019 430.531 851.308Z" fill="#1A2E35"/>
<path d="M503.51 851.308C504.386 854.019 504.583 856.729 504.62 859.44C504.588 862.151 504.391 864.862 503.51 867.573C502.63 864.862 502.433 862.151 502.401 859.44C502.438 856.729 502.634 854.019 503.51 851.308Z" fill="#1A2E35"/>
<path d="M576.49 851.308C577.366 854.019 577.561 856.729 577.599 859.44C577.567 862.151 577.37 864.862 576.49 867.573C575.61 864.862 575.412 862.151 575.38 859.44C575.417 856.729 575.614 854.019 576.49 851.308Z" fill="#1A2E35"/>
<path d="M649.469 851.308C650.345 854.019 650.541 856.729 650.579 859.44C650.547 862.151 650.349 864.862 649.469 867.573C648.589 864.862 648.391 862.151 648.359 859.44C648.396 856.729 648.593 854.019 649.469 851.308Z" fill="#1A2E35"/>
<path d="M722.449 851.308C723.324 854.019 723.521 856.729 723.558 859.44C723.526 862.151 723.329 864.862 722.449 867.573C721.568 864.862 721.371 862.151 721.339 859.44C721.376 856.729 721.573 854.019 722.449 851.308Z" fill="#1A2E35"/>
<path d="M795.428 851.308C796.304 854.019 796.5 856.729 796.537 859.44C796.505 862.151 796.308 864.862 795.428 867.573C794.548 864.862 794.35 862.151 794.318 859.44C794.355 856.729 794.553 854.019 795.428 851.308Z" fill="#1A2E35"/>
<path d="M868.407 851.308C869.283 854.019 869.48 856.729 869.517 859.44C869.485 862.151 869.288 864.862 868.407 867.573C867.527 864.862 867.329 862.151 867.297 859.44C867.335 856.729 867.532 854.019 868.407 851.308Z" fill="#1A2E35"/>
<path d="M941.387 851.308C942.263 854.019 942.459 856.729 942.496 859.44C942.464 862.151 942.267 864.862 941.387 867.573C940.506 864.862 940.309 862.151 940.277 859.44C940.315 856.729 940.511 854.019 941.387 851.308Z" fill="#1A2E35"/>
<path d="M80.07 867.573H999.93" stroke="#1A2E35" stroke-linecap="round" stroke-linejoin="round"/>
<g opacity="0.1">
<path d="M650.348 132.817C650.348 166.23 623.262 193.316 589.849 193.316C556.436 193.316 529.349 166.23 529.349 132.817C529.349 99.4045 556.436 72.3183 589.849 72.3183C623.262 72.3183 650.348 99.4045 650.348 132.817Z" fill="#FFC800"/>
</g>
<path d="M633.986 132.778C633.986 157.162 614.219 176.929 589.835 176.929C565.451 176.929 545.684 157.162 545.684 132.778C545.684 108.394 565.451 88.627 589.835 88.627C614.219 88.627 633.986 108.394 633.986 132.778Z" fill="#FFC800"/>
</svg>
