<svg width="126" height="171" viewBox="0 0 126 171" fill="none" xmlns="http://www.w3.org/2000/svg">
<g opacity="0.12">
<path d="M117.132 160.823C117.132 166.113 92.6562 170.402 62.4638 170.402C32.271 170.402 7.79517 166.113 7.79517 160.823C7.79517 155.533 32.271 151.245 62.4638 151.245C92.6562 151.245 117.132 155.533 117.132 160.823Z" fill="black"/>
</g>
<path d="M62.616 0.000366211C28.0897 0.000366211 0 28.0665 0 62.565C0 83.9055 10.1317 106.816 30.1144 130.662C44.7907 148.177 59.268 159.441 59.877 159.912C60.684 160.536 61.65 160.848 62.6167 160.848C63.5827 160.848 64.5495 160.536 65.3565 159.912C65.9651 159.441 80.4424 148.177 95.1191 130.662C115.102 106.816 125.234 83.9062 125.234 62.565C125.233 28.0665 97.1426 0.000366211 62.616 0.000366211ZM85.8052 62.5642C85.8052 75.3604 75.423 85.7351 62.616 85.7351C49.8094 85.7351 39.4271 75.3611 39.4271 62.5642C39.4271 49.7674 49.8094 39.3945 62.616 39.3945C75.4226 39.3945 85.8052 49.7681 85.8052 62.5642Z" fill="#E30917"/>
<g opacity="0.1">
<path d="M62.616 0C59.8797 0 57.1845 0.177378 54.5397 0.519379C85.2657 4.49063 109.08 30.8006 109.08 62.565C109.08 83.9051 98.9483 106.817 78.9657 130.663C69.5273 141.926 60.1778 150.598 54.5397 155.483C57.6694 158.195 59.6603 159.745 59.877 159.913C60.684 160.536 61.6501 160.848 62.6168 160.848C63.5828 160.848 64.5495 160.536 65.3565 159.913C65.9652 159.442 80.4424 148.177 95.1192 130.663C115.102 106.817 125.233 83.9059 125.233 62.565C125.232 28.0665 97.1427 0 62.616 0Z" fill="black"/>
</g>
</svg>
