<svg width="30" height="30" viewBox="0 0 30 30" fill="none" xmlns="http://www.w3.org/2000/svg">
<path d="M24.375 13.5938H22.3828V7.03125C22.3828 4.95996 20.7041 3.28125 18.6328 3.28125H11.3672C9.2959 3.28125 7.61719 4.95996 7.61719 7.03125V13.5938H5.625C5.10645 13.5938 4.6875 14.0127 4.6875 14.5312V25.7812C4.6875 26.2998 5.10645 26.7188 5.625 26.7188H24.375C24.8936 26.7188 25.3125 26.2998 25.3125 25.7812V14.5312C25.3125 14.0127 24.8936 13.5938 24.375 13.5938ZM9.72656 7.03125C9.72656 6.12598 10.4619 5.39062 11.3672 5.39062H18.6328C19.5381 5.39062 20.2734 6.12598 20.2734 7.03125V13.5938H9.72656V7.03125ZM23.2031 24.6094H6.79688V15.7031H23.2031V24.6094ZM14.1797 20.5371V22.0898C14.1797 22.2188 14.2852 22.3242 14.4141 22.3242H15.5859C15.7148 22.3242 15.8203 22.2188 15.8203 22.0898V20.5371C16.0621 20.3635 16.2427 20.1176 16.3359 19.8348C16.429 19.5521 16.4301 19.2471 16.3389 18.9637C16.2477 18.6803 16.069 18.4331 15.8283 18.2578C15.5877 18.0825 15.2977 17.988 15 17.988C14.7023 17.988 14.4123 18.0825 14.1717 18.2578C13.931 18.4331 13.7523 18.6803 13.6611 18.9637C13.5699 19.2471 13.571 19.5521 13.6641 19.8348C13.7573 20.1176 13.9379 20.3635 14.1797 20.5371V20.5371Z" fill="#A0A0A0"/>
</svg>
