<svg width="35" height="35" viewBox="0 0 35 35" fill="none" xmlns="http://www.w3.org/2000/svg">
<path d="M17.5 7.65635C19.4469 7.65635 21.3501 8.23368 22.9689 9.31532C24.5877 10.397 25.8494 11.9344 26.5944 13.7331C27.3395 15.5318 27.5344 17.511 27.1546 19.4205C26.7748 21.33 25.8373 23.084 24.4606 24.4607C23.0839 25.8374 21.3299 26.7749 19.4204 27.1547C17.5109 27.5345 15.5317 27.3396 13.733 26.5945C11.9342 25.8495 10.3969 24.5878 9.31522 22.969C8.23358 21.3502 7.65625 19.447 7.65625 17.5001C7.65625 17.065 7.4834 16.6477 7.17572 16.34C6.86805 16.0323 6.45075 15.8595 6.01562 15.8595C5.5805 15.8595 5.1632 16.0323 4.85553 16.34C4.54785 16.6477 4.375 17.065 4.375 17.5001C4.3753 20.4451 5.36602 23.3044 7.18785 25.6182C9.00969 27.9321 11.5568 29.5659 14.4195 30.2572C17.2822 30.9484 20.2942 30.6567 22.9711 29.4291C25.648 28.2015 27.8343 26.1093 29.1784 23.4889C30.5224 20.8685 30.9462 17.8723 30.3814 14.9819C29.8167 12.0916 28.2963 9.4752 26.0648 7.55344C23.8333 5.63168 21.0203 4.51625 18.0781 4.38652C15.136 4.2568 12.2358 5.12033 9.84375 6.83823V6.01573C9.84375 5.58061 9.6709 5.16331 9.36322 4.85563C9.05555 4.54796 8.63825 4.3751 8.20312 4.3751C7.768 4.3751 7.3507 4.54796 7.04303 4.85563C6.73535 5.16331 6.5625 5.58061 6.5625 6.01573V11.4845C6.5625 12.3901 7.2975 13.1251 8.20312 13.1251H11.4844C11.9195 13.1251 12.3368 12.9523 12.6445 12.6446C12.9521 12.3369 13.125 11.9196 13.125 11.4845C13.125 11.0494 12.9521 10.6321 12.6445 10.3244C12.3368 10.0167 11.9195 9.84385 11.4844 9.84385H11.3116C13.0616 8.42503 15.2471 7.65251 17.5 7.65635ZM18.5938 12.5782C18.5937 12.1431 18.4209 11.7258 18.1132 11.4181C17.8055 11.1105 17.3882 10.9376 16.9531 10.9376C16.518 10.9376 16.1007 11.1105 15.793 11.4181C15.4854 11.7258 15.3125 12.1431 15.3125 12.5782V18.047C15.3125 18.9526 16.0475 19.6876 16.9531 19.6876H20.2344C20.6695 19.6876 21.0868 19.5148 21.3945 19.2071C21.7021 18.8994 21.875 18.4821 21.875 18.047C21.875 17.6119 21.7021 17.1946 21.3945 16.8869C21.0868 16.5792 20.6695 16.4064 20.2344 16.4064H18.5938V12.5782Z" fill="#8A8A8A"/>
</svg>
