<svg width="35" height="35" viewBox="0 0 35 35" fill="none" xmlns="http://www.w3.org/2000/svg">
<path d="M30.9999 15.9863C31.6912 16.8905 31.6912 18.1111 30.9999 19.0138C28.8226 21.8561 23.5989 27.7084 17.5001 27.7084C11.4014 27.7084 6.17762 21.8561 4.00033 19.0138C3.66401 18.5809 3.48145 18.0483 3.48145 17.5001C3.48145 16.9519 3.66401 16.4193 4.00033 15.9863C6.17762 13.144 11.4014 7.29175 17.5001 7.29175C23.5989 7.29175 28.8226 13.144 30.9999 15.9863V15.9863Z" stroke="white" stroke-width="2" stroke-linecap="round" stroke-linejoin="round"/>
<path d="M17.5 21.875C19.9162 21.875 21.875 19.9162 21.875 17.5C21.875 15.0838 19.9162 13.125 17.5 13.125C15.0838 13.125 13.125 15.0838 13.125 17.5C13.125 19.9162 15.0838 21.875 17.5 21.875Z" stroke="white" stroke-width="2" stroke-linecap="round" stroke-linejoin="round"/>
</svg>
