<svg width="36" height="36" viewBox="0 0 36 36" fill="none" xmlns="http://www.w3.org/2000/svg">
<rect width="36" height="36" rx="8" fill="white"/>
<path fill-rule="evenodd" clip-rule="evenodd" d="M24.9643 22H11.0368C11.2867 20.3653 11.8794 17.2847 13.0623 14.6234C14.2995 11.8399 15.9532 10 18.1046 10C20.2512 10 21.8705 11.8351 23.0622 14.6233C24.2014 17.2886 24.7426 20.3722 24.9643 22ZM18.1046 8C14.6096 8 12.4721 10.9707 11.2054 13.8203C9.89892 16.7598 9.27505 20.0923 9.02251 21.7644C8.83806 22.9855 9.81319 24 10.9989 24H24.9991C26.1691 24 27.1453 23.0092 26.9821 21.7953C26.7584 20.1307 26.19 16.7931 24.9305 13.8463C23.7098 10.9902 21.613 8 18.1046 8ZM13.1168 26.6092C13.3357 26.101 13.9311 25.8643 14.4463 26.0799L14.4494 26.0812L14.4658 26.0879C14.481 26.0942 14.5046 26.1038 14.5359 26.1163C14.5985 26.1413 14.6916 26.1777 14.8092 26.2219C15.0451 26.3104 15.3763 26.4286 15.7558 26.5464C16.5415 26.7904 17.4325 27.0003 18.1048 27.0003C18.7772 27.0003 19.6681 26.7904 20.4539 26.5464C20.8334 26.4286 21.1646 26.3104 21.4004 26.2219C21.518 26.1777 21.6111 26.1413 21.6738 26.1163C21.705 26.1038 21.7287 26.0942 21.7439 26.0879L21.7602 26.0812L21.7636 26.0798C22.2788 25.864 22.8739 26.1009 23.0928 26.6092C23.3118 27.1175 23.0713 27.7047 22.556 27.9207C22.5562 27.9207 22.5563 27.9206 22.1598 27.0003L22.556 27.9207L22.5527 27.9221L22.5456 27.9251L22.5214 27.935C22.5008 27.9435 22.4715 27.9553 22.4343 27.9702C22.36 27.9999 22.2536 28.0415 22.1215 28.0911C21.8579 28.1901 21.4883 28.3219 21.0627 28.4541C20.2383 28.7101 19.1017 29.0003 18.1048 29.0003C17.108 29.0003 15.9714 28.7101 15.147 28.4541C14.7213 28.3219 14.3518 28.1901 14.0881 28.0911C13.956 28.0415 13.8497 27.9999 13.7753 27.9702C13.7381 27.9553 13.7088 27.9435 13.6883 27.935L13.664 27.9251L13.657 27.9221L13.6534 27.9206L14.0498 27.0003C13.6534 27.9206 13.6532 27.9206 13.6534 27.9206C13.1381 27.7046 12.8979 27.1175 13.1168 26.6092Z" fill="#7C7B7B"/>
</svg>
